<svg width="210" height="86" viewBox="0 0 210 86" fill="none" xmlns="http://www.w3.org/2000/svg">
<circle cx="30" cy="30" r="30" fill="#9D634F"/>
<circle cx="63.5018" cy="42.8782" r="40.6745" transform="rotate(3.19496 63.5018 42.8782)" fill="#F5DBC4"/>
<path d="M42.2 58.44C39.88 58.44 37.88 58.0667 36.2 57.32C34.5467 56.5467 33.0267 55.3867 31.64 53.84L35.72 49.8C36.6267 50.84 37.6267 51.6533 38.72 52.24C39.84 52.8 41.1333 53.08 42.6 53.08C43.9333 53.08 44.96 52.84 45.68 52.36C46.4267 51.88 46.8 51.2133 46.8 50.36C46.8 49.5867 46.56 48.96 46.08 48.48C45.6 48 44.96 47.5867 44.16 47.24C43.3867 46.8933 42.52 46.56 41.56 46.24C40.6267 45.92 39.6933 45.56 38.76 45.16C37.8267 44.7333 36.96 44.2133 36.16 43.6C35.3867 42.96 34.76 42.1733 34.28 41.24C33.8 40.28 33.56 39.08 33.56 37.64C33.56 35.9067 33.9733 34.4133 34.8 33.16C35.6533 31.9067 36.8267 30.96 38.32 30.32C39.8133 29.6533 41.5333 29.32 43.48 29.32C45.4533 29.32 47.2533 29.6667 48.88 30.36C50.5333 31.0533 51.8933 32 52.96 33.2L48.88 37.24C48.0267 36.36 47.16 35.7067 46.28 35.28C45.4267 34.8533 44.4533 34.64 43.36 34.64C42.2667 34.64 41.4 34.8533 40.76 35.28C40.12 35.68 39.8 36.2667 39.8 37.04C39.8 37.76 40.04 38.3467 40.52 38.8C41 39.2267 41.6267 39.6 42.4 39.92C43.2 40.24 44.0667 40.56 45 40.88C45.96 41.2 46.9067 41.5733 47.84 42C48.7733 42.4267 49.6267 42.9733 50.4 43.64C51.2 44.28 51.84 45.1067 52.32 46.12C52.8 47.1067 53.04 48.3333 53.04 49.8C53.04 52.4933 52.08 54.6133 50.16 56.16C48.24 57.68 45.5867 58.44 42.2 58.44ZM70.8691 58.44C68.5491 58.44 66.4957 57.9467 64.7091 56.96C62.9491 55.9733 61.5624 54.6133 60.5491 52.88C59.5624 51.12 59.0691 49.12 59.0691 46.88V29.76H65.3891V47.24C65.3891 48.36 65.6291 49.3333 66.1091 50.16C66.5891 50.9867 67.2424 51.6267 68.0691 52.08C68.9224 52.5067 69.8557 52.72 70.8691 52.72C71.9357 52.72 72.8691 52.5067 73.6691 52.08C74.4691 51.6267 75.0957 51 75.5491 50.2C76.0291 49.3733 76.2691 48.4 76.2691 47.28V29.76H82.5891V46.92C82.5891 49.16 82.0957 51.1467 81.1091 52.88C80.1224 54.6133 78.7491 55.9733 76.9891 56.96C75.2291 57.9467 73.1891 58.44 70.8691 58.44ZM89.595 58V29.76H93.995L95.875 35.4V58H89.595ZM109.075 58L92.435 36.68L93.995 29.76L110.635 51.08L109.075 58ZM109.075 58L107.395 52.36V29.76H113.675V58H109.075ZM125.926 46.36V41.72H131.886C133.14 41.72 134.1 41.4 134.766 40.76C135.46 40.12 135.806 39.2533 135.806 38.16C135.806 37.1467 135.473 36.3067 134.806 35.64C134.14 34.9733 133.18 34.64 131.926 34.64H125.926V29.76H132.646C134.513 29.76 136.153 30.12 137.566 30.84C138.98 31.5333 140.086 32.5067 140.886 33.76C141.686 35.0133 142.086 36.4533 142.086 38.08C142.086 39.7333 141.686 41.1867 140.886 42.44C140.086 43.6667 138.966 44.6267 137.526 45.32C136.086 46.0133 134.393 46.36 132.446 46.36H125.926ZM121.126 58V29.76H127.406V58H121.126ZM136.486 58L127.686 45.84L133.446 44.28L143.926 58H136.486ZM148.673 58V29.76H154.953V58H148.673ZM170.325 58.44C168.005 58.44 166.005 58.0667 164.325 57.32C162.672 56.5467 161.152 55.3867 159.765 53.84L163.845 49.8C164.752 50.84 165.752 51.6533 166.845 52.24C167.965 52.8 169.258 53.08 170.725 53.08C172.058 53.08 173.085 52.84 173.805 52.36C174.552 51.88 174.925 51.2133 174.925 50.36C174.925 49.5867 174.685 48.96 174.205 48.48C173.725 48 173.085 47.5867 172.285 47.24C171.512 46.8933 170.645 46.56 169.685 46.24C168.752 45.92 167.818 45.56 166.885 45.16C165.952 44.7333 165.085 44.2133 164.285 43.6C163.512 42.96 162.885 42.1733 162.405 41.24C161.925 40.28 161.685 39.08 161.685 37.64C161.685 35.9067 162.098 34.4133 162.925 33.16C163.778 31.9067 164.952 30.96 166.445 30.32C167.938 29.6533 169.658 29.32 171.605 29.32C173.578 29.32 175.378 29.6667 177.005 30.36C178.658 31.0533 180.018 32 181.085 33.2L177.005 37.24C176.152 36.36 175.285 35.7067 174.405 35.28C173.552 34.8533 172.578 34.64 171.485 34.64C170.392 34.64 169.525 34.8533 168.885 35.28C168.245 35.68 167.925 36.2667 167.925 37.04C167.925 37.76 168.165 38.3467 168.645 38.8C169.125 39.2267 169.752 39.6 170.525 39.92C171.325 40.24 172.192 40.56 173.125 40.88C174.085 41.2 175.032 41.5733 175.965 42C176.898 42.4267 177.752 42.9733 178.525 43.64C179.325 44.28 179.965 45.1067 180.445 46.12C180.925 47.1067 181.165 48.3333 181.165 49.8C181.165 52.4933 180.205 54.6133 178.285 56.16C176.365 57.68 173.712 58.44 170.325 58.44ZM187.165 58V29.76H193.445V58H187.165ZM191.965 58V52.56H207.445V58H191.965ZM191.965 46.2V40.96H206.045V46.2H191.965ZM191.965 35.16V29.76H207.245V35.16H191.965Z" fill="#9D634F"/>
<circle cx="79" cy="24" r="3" fill="#9D634F"/>
<circle cx="62" cy="24" r="3" fill="#9D634F"/>
</svg>
