<svg width="303" height="257" viewBox="0 0 303 257" fill="none" xmlns="http://www.w3.org/2000/svg">
<ellipse cx="151.307" cy="201.372" rx="151.307" ry="55.6277" fill="#EBD1BA"/>
<path d="M152.603 12.9028C147.329 4.89183 137.007 1.8363 126.5 2.62322C115.994 3.41015 103.105 7.05409 99.8582 24.019C97.2139 37.7866 99.8582 51.8661 97.8306 67.3493C95.8031 82.8325 73.67 118.393 99.447 140.313C122.594 159.993 175.587 151.16 181.393 117.301C186.001 90.4607 157.084 61.5218 155.042 50.4057C153 39.2895 158.381 21.6866 152.603 12.9028Z" fill="#263238"/>
<path d="M155.311 28.7121C154.546 36.4608 154.687 44.4151 156.984 52.1071C157.576 54.0556 158.433 55.9137 159.529 57.6297C160.579 59.3453 161.713 60.9759 162.84 62.5923C165.137 65.8179 167.406 69.0152 169.511 72.3118C173.817 78.7745 177.161 85.829 179.436 93.2538C181.59 100.71 182.311 108.506 181.563 116.231C182.365 112.394 182.736 108.48 182.669 104.561C182.551 100.614 182.026 96.6894 181.102 92.8497C179.288 85.1223 175.686 77.877 171.418 71.1775C169.292 67.8384 166.924 64.6198 164.613 61.4296C162.301 58.2394 159.912 55.1555 158.665 51.5754C157.388 47.9381 156.539 44.1649 156.134 40.3316C155.618 36.4793 155.344 32.5986 155.311 28.7121Z" fill="#263238"/>
<path d="M99.128 35.7517C98.3481 43.6563 97.859 51.5823 96.675 59.3806C96.1154 63.2735 95.3151 67.1281 94.2788 70.9221C93.2296 74.644 91.6203 78.3021 90.1953 82.0241C88.7704 85.746 87.4376 89.5388 86.3175 93.3671C85.2209 97.2396 84.4688 101.201 84.0701 105.206C83.7511 109.239 84.0041 113.297 84.8216 117.258C85.8468 121.182 87.6608 124.856 90.1528 128.055C88.0604 124.688 86.6176 120.959 85.8992 117.06C85.3157 113.197 85.2776 109.271 85.7858 105.398C86.8704 97.642 89.4155 90.1485 92.2938 82.7685C93.6691 79.0536 95.2855 75.3955 96.3277 71.4254C97.3266 67.5386 98.0234 63.5804 98.4119 59.5862C99.1422 51.6637 99.3813 43.7037 99.128 35.7517Z" fill="#263238"/>
<path d="M137.092 105.972C153.248 137.839 188.568 178.787 202.697 178.546C209.41 178.433 221.434 179.673 230.005 171.698C248.707 154.3 265.083 122.909 268.933 105.582C270.351 99.0812 235.18 83.3145 230.65 88.7875C220.016 101.612 207.964 126.51 205.986 126.425C198.755 126.092 169.83 103.441 149.626 87.4901C125.089 68.1219 130.654 93.275 137.092 105.972Z" fill="#EEB3AC"/>
<path d="M259.355 128.006C266.196 117.166 274.867 101.307 273.789 95.5436C272.655 89.4963 267.813 68.3983 265.105 63.8611C262.396 59.3239 247.112 47.2578 242.447 46.4284C238.725 45.769 236.279 53.2412 243.191 61.394C249.657 69.0222 251.578 70.5252 252.868 73.1199C254.159 75.7146 253.52 86.7031 249.65 88.5322C247.409 89.631 240.54 87.3695 238.576 83.2506C236.612 79.1317 241.121 72.1983 239.994 66.1794C238.867 60.1605 232.196 55.1341 230.338 56.552C228.481 57.9699 229.948 60.5504 228.275 69.1782C227.198 74.7292 219.711 83.9028 219.009 94.4164C218.655 99.7051 215.521 111.913 215.521 111.913L259.355 128.006Z" fill="#EEB3AC"/>
<path d="M245.531 48.0732C246.821 48.7821 248.14 49.4343 249.409 50.1575C249.444 50.1575 249.479 50.1574 249.451 50.1149C248.033 49.1862 246.651 48.1653 245.233 47.2224C244.113 46.5135 242.78 45.8046 241.398 46.1661C240.782 46.3592 240.228 46.7101 239.79 47.184C239.352 47.6579 239.046 48.2382 238.902 48.8672C238.631 50.2518 238.663 51.6786 238.994 53.0499C238.994 53.1279 239.115 53.1066 239.108 53.0499C238.902 50.8522 239.001 47.1445 241.943 46.946C243.241 46.8396 244.432 47.4777 245.531 48.0732Z" fill="#263238"/>
<path d="M238.902 60.6569C237.995 59.4588 237.059 58.0977 236.938 56.5522C236.877 56.0481 236.939 55.5367 237.118 55.0616C237.297 54.5864 237.588 54.1614 237.966 53.8228C238.216 53.5415 238.558 53.3581 238.931 53.3052C238.946 53.3052 238.96 53.2993 238.971 53.2886C238.981 53.278 238.987 53.2636 238.987 53.2485C238.987 53.2335 238.981 53.2191 238.971 53.2084C238.96 53.1978 238.946 53.1918 238.931 53.1918C238.728 53.2533 238.522 53.3006 238.314 53.3336C238.144 53.3868 237.98 53.4581 237.825 53.5463C237.513 53.727 237.241 53.968 237.023 54.2552C236.558 54.8661 236.309 55.6142 236.315 56.382C236.315 58.2182 237.463 59.6786 238.845 60.7633C238.859 60.7653 238.872 60.7632 238.884 60.7573C238.896 60.7514 238.905 60.7419 238.912 60.7303C238.918 60.7186 238.92 60.7052 238.919 60.6921C238.917 60.679 238.911 60.6667 238.902 60.6569Z" fill="#263238"/>
<path d="M226.673 33.6249C229.26 36.5703 231.63 39.7003 233.762 42.99C234.84 44.6433 235.823 46.357 236.705 48.1227L237.321 49.4838C237.527 49.9375 237.676 50.4267 237.86 50.9017C238.023 51.3833 238.16 51.8732 238.271 52.3692C238.392 52.8655 238.434 53.3617 238.512 53.858C238.924 57.8068 238.853 61.7059 238.938 65.6193L239.193 77.338C239.278 81.2443 239.278 85.1363 239.051 89.078C238.945 91.0347 238.803 92.9914 238.583 94.9551C238.477 95.9335 238.307 96.9189 238.137 97.8972C237.966 98.8756 237.683 99.8893 237.428 100.79C236.367 104.515 235.543 108.303 234.961 112.133C234.341 115.973 233.941 119.845 233.762 123.731H233.621C233.359 119.816 233.435 115.886 233.848 111.984C234.237 108.064 234.948 104.182 235.974 100.379C236.251 99.4144 236.463 98.5069 236.683 97.5995C236.903 96.692 237.016 95.7137 237.144 94.7637C237.406 92.8567 237.591 90.9213 237.747 88.9859C238.052 85.1151 238.257 81.1875 238.456 77.3309C238.654 73.4743 238.69 69.5326 238.519 65.6334C238.434 63.6862 238.295 61.7414 238.101 59.7989C237.924 57.8635 237.697 55.921 237.392 54.0352C237.064 52.1714 236.464 50.3657 235.613 48.6756C234.79 46.9387 233.848 45.2515 232.869 43.5784C230.905 40.2322 228.779 36.964 226.609 33.7171L226.673 33.6249Z" fill="#263238"/>
<path d="M224.66 26.0607C228.119 25.9118 231.04 29.3147 230.827 31.5407C230.615 33.7668 228.97 38.1197 225.588 37.7936C222.207 37.4675 220.094 34.7239 220.066 32.3702C220.037 30.0165 222.334 26.1599 224.66 26.0607Z" fill="#263238"/>
<path d="M224.759 19.985C225.006 21.0257 225.163 22.086 225.227 23.1539C225.305 24.2242 225.255 25.2999 225.078 26.3583C225.149 24.2287 225.042 22.0969 224.759 19.985Z" fill="#263238"/>
<path d="M220.86 19.056C221.162 19.261 221.474 19.4503 221.796 19.6232C222.11 19.7995 222.437 19.9534 222.774 20.084C223.103 20.2291 223.445 20.343 223.795 20.4243C224.146 20.5167 224.504 20.5807 224.865 20.6157C224.498 20.6463 224.128 20.6273 223.766 20.559C222.669 20.3593 221.657 19.8359 220.86 19.056Z" fill="#263238"/>
<path d="M226.666 16.6457C226.575 17.3803 226.374 18.0972 226.07 18.7725C225.917 19.1095 225.741 19.4363 225.546 19.7508C225.338 20.0616 225.101 20.3513 224.837 20.6157C225.035 20.3109 225.234 19.9989 225.404 19.6799C225.579 19.3623 225.738 19.0358 225.879 18.7016C226.035 18.3684 226.163 18.0281 226.29 17.6878C226.418 17.3475 226.56 17.0001 226.666 16.6457Z" fill="#263238"/>
<path d="M221.179 17.0713C221.415 17.4333 221.678 17.7769 221.966 18.0993C222.239 18.4292 222.535 18.7395 222.852 19.028C223.478 19.6177 224.157 20.1492 224.879 20.616C224.485 20.4339 224.106 20.2206 223.745 19.9779C223.386 19.7318 223.046 19.4567 222.731 19.1556C222.088 18.5639 221.562 17.8569 221.179 17.0713Z" fill="#263238"/>
<path d="M225.432 15.5681C225.575 16.4164 225.594 17.2808 225.489 18.1345C225.432 18.5528 225.369 18.9781 225.269 19.3964C225.168 19.8116 225.038 20.2191 224.879 20.6158C225.075 19.791 225.222 18.9554 225.319 18.1132C225.376 17.695 225.397 17.2696 225.418 16.8442C225.444 16.4194 225.449 15.9935 225.432 15.5681Z" fill="#263238"/>
<path d="M222.193 16.022C222.639 16.7948 223.057 17.5746 223.511 18.3332C223.965 19.0917 224.419 19.8503 224.865 20.616C224.306 19.9275 223.803 19.1949 223.362 18.4253C222.91 17.656 222.519 16.8524 222.193 16.022Z" fill="#263238"/>
<path d="M223.809 15.4193C224.135 16.2479 224.393 17.1014 224.582 17.9715C224.779 18.8389 224.874 19.7263 224.865 20.6158C224.608 18.8657 224.255 17.1309 223.809 15.4193Z" fill="#263238"/>
<path d="M277.426 5.08308C276.864 5.30573 276.279 5.46505 275.682 5.55808C275.084 5.65608 274.476 5.67277 273.874 5.6077C275.058 5.50136 276.242 5.26741 277.426 5.08308Z" fill="#263238"/>
<path d="M277.745 2.84984C277.57 3.21618 277.423 3.59539 277.305 3.98414C277.186 4.37163 277.11 4.77104 277.079 5.17516C277.03 4.97339 277.013 4.7653 277.029 4.55838C277.061 3.9241 277.311 3.32043 277.738 2.84984H277.745Z" fill="#263238"/>
<path d="M279.404 5.97654C278.985 5.98645 278.568 5.9241 278.17 5.79222C277.768 5.66338 277.397 5.45347 277.079 5.17545C277.469 5.3385 277.837 5.50156 278.227 5.62207C278.617 5.74259 279.007 5.85602 279.404 5.97654Z" fill="#263238"/>
<path d="M278.865 2.91394C278.166 3.57957 277.564 4.34098 277.079 5.17545C277.143 4.92938 277.236 4.69152 277.355 4.46652C277.47 4.24783 277.603 4.03914 277.752 3.84265C278.055 3.45971 278.434 3.14353 278.865 2.91394Z" fill="#263238"/>
<path d="M279.943 5.21798C279.486 5.3691 279.006 5.43869 278.525 5.42357C278.287 5.41983 278.05 5.3985 277.816 5.35977C277.574 5.32258 277.336 5.26082 277.107 5.17545C278.05 5.25561 278.998 5.26982 279.943 5.21798Z" fill="#263238"/>
<path d="M279.51 3.43137C279.12 3.75039 278.709 4.02687 278.312 4.32462C277.915 4.62238 277.511 4.91305 277.079 5.17535C277.42 4.80757 277.798 4.47506 278.206 4.18284C278.613 3.88769 279.051 3.63584 279.51 3.43137Z" fill="#263238"/>
<path d="M279.943 4.30327C279.505 4.55516 279.042 4.75955 278.56 4.91296C278.083 5.0752 277.583 5.16365 277.079 5.17526C278.05 4.91296 278.971 4.55849 279.943 4.30327Z" fill="#263238"/>
<path d="M233.231 10.556C232.699 11.6335 232.146 12.6828 231.692 13.7958C231.803 13.1992 231.999 12.6215 232.274 12.0802C232.538 11.5397 232.859 11.0288 233.231 10.556Z" fill="#263238"/>
<path d="M235.428 10.9391C235.047 11.1178 234.63 11.2075 234.209 11.2014C233.999 11.1965 233.79 11.1703 233.585 11.1234C233.381 11.0739 233.185 10.9951 233.004 10.8895C233.4 10.9759 233.804 11.021 234.209 11.0242C234.617 11.0274 235.025 10.9989 235.428 10.9391Z" fill="#263238"/>
<path d="M232.926 8.40826C232.926 8.81945 232.926 9.23063 232.926 9.63473C232.926 10.0388 232.975 10.4429 233.011 10.8612C232.84 10.4772 232.751 10.062 232.749 9.64182C232.732 9.22328 232.792 8.80529 232.926 8.40826Z" fill="#263238"/>
<path d="M235.698 9.81172C235.345 10.1598 234.922 10.4282 234.457 10.5986C234.226 10.6827 233.989 10.749 233.748 10.7971C233.515 10.8414 233.277 10.8628 233.039 10.8609C233.972 10.6428 234.868 10.2893 235.698 9.81172Z" fill="#263238"/>
<path d="M233.812 8.10323C233.479 8.99763 233.208 9.91443 233.004 10.8468C232.996 10.6099 233.008 10.3728 233.039 10.1379C233.075 9.89878 233.124 9.66203 233.188 9.42894C233.317 8.95377 233.528 8.50498 233.812 8.10323Z" fill="#263238"/>
<path d="M235.358 9.04602C235.03 9.42788 234.662 9.7726 234.259 10.074C233.862 10.3832 233.431 10.6471 232.976 10.8609C233.358 10.5277 233.762 10.2441 234.152 9.93219C234.542 9.62026 234.968 9.3296 235.358 9.04602Z" fill="#263238"/>
<path d="M234.649 8.37973C234.11 9.23046 233.521 10.0103 232.976 10.861C233.146 10.3823 233.384 9.93097 233.685 9.52112C233.967 9.10952 234.29 8.72716 234.649 8.37973Z" fill="#263238"/>
<path d="M269.663 12.0235C268.912 12.1511 268.181 12.2149 267.43 12.3071C267.777 12.1456 268.148 12.0427 268.529 12.0023C268.906 11.9597 269.288 11.9668 269.663 12.0235Z" fill="#263238"/>
<path d="M270.23 13.3209C269.99 13.2021 269.789 13.0177 269.649 12.7891C269.502 12.5641 269.428 12.2993 269.436 12.0306C269.564 12.2645 269.656 12.4843 269.798 12.697C269.94 12.9097 270.096 13.1011 270.23 13.3209Z" fill="#263238"/>
<path d="M270.705 11.1587C270.273 11.4635 269.869 11.7258 269.436 12.0307C269.565 11.7955 269.75 11.5959 269.975 11.4493C270.193 11.2975 270.443 11.198 270.705 11.1587Z" fill="#263238"/>
<path d="M270.904 13.0657C270.591 13.0219 270.295 12.8972 270.046 12.7042C269.922 12.6073 269.806 12.5006 269.698 12.3852C269.594 12.2698 269.506 12.1411 269.436 12.0023C269.899 12.3914 270.39 12.7468 270.904 13.0657Z" fill="#263238"/>
<path d="M271.159 11.5203L269.436 12.0307C269.677 11.8369 269.954 11.6923 270.251 11.6054C270.545 11.5169 270.854 11.4879 271.159 11.5203Z" fill="#263238"/>
<path d="M271.201 12.6757C270.884 12.6503 270.571 12.5811 270.273 12.4701C269.974 12.365 269.692 12.2169 269.436 12.0306C269.742 12.1035 270.043 12.1958 270.337 12.3071C270.633 12.4105 270.922 12.5337 271.201 12.6757Z" fill="#263238"/>
<path d="M271.315 12.0731C270.688 12.1014 270.061 12.0872 269.436 12.0305C269.74 11.931 270.06 11.8901 270.379 11.91C270.697 11.9182 271.013 11.9731 271.315 12.0731Z" fill="#263238"/>
<path d="M255.25 12.2432C254.196 12.0528 253.159 11.773 252.152 11.4067C251.142 11.0499 250.178 10.5739 249.281 9.98882C251.206 10.9011 253.203 11.6551 255.25 12.2432Z" fill="#263238"/>
<path d="M257.654 9.03189C257.345 9.22351 257.047 9.43178 256.76 9.65576C256.476 9.87692 256.204 10.1136 255.945 10.3647C255.688 10.6156 255.451 10.8858 255.236 11.1729C255.015 11.4614 254.814 11.7646 254.634 12.0803C254.758 11.7339 254.922 11.4032 255.123 11.0949C255.329 10.7857 255.567 10.4983 255.832 10.2371C256.357 9.72288 256.975 9.31381 257.654 9.03189Z" fill="#263238"/>
<path d="M257.554 15.3131C256.917 14.9284 256.341 14.4505 255.846 13.8952C255.59 13.6238 255.353 13.3348 255.137 13.0303C254.93 12.724 254.752 12.3988 254.605 12.0591C254.811 12.3639 255.016 12.6617 255.243 12.9453C255.47 13.2288 255.704 13.5124 255.952 13.7747C256.2 14.037 256.456 14.2993 256.718 14.5546C256.98 14.8098 257.278 15.0792 257.554 15.3131Z" fill="#263238"/>
<path d="M259.355 10.0953C258.93 10.1699 258.511 10.2742 258.1 10.4072C257.69 10.5307 257.287 10.6799 256.895 10.8539C256.103 11.1961 255.344 11.6089 254.626 12.0874C254.951 11.7956 255.299 11.5323 255.669 11.3005C256.038 11.0681 256.424 10.8642 256.824 10.6908C257.624 10.338 258.482 10.1361 259.355 10.0953Z" fill="#263238"/>
<path d="M259.043 14.597C258.209 14.3926 257.409 14.0678 256.668 13.6328C256.298 13.418 255.94 13.1813 255.598 12.9239C255.255 12.6681 254.93 12.3886 254.626 12.0873C255.31 12.5968 256.02 13.0701 256.753 13.5052C257.122 13.7179 257.498 13.9093 257.88 14.1007C258.263 14.2921 258.646 14.441 259.043 14.597Z" fill="#263238"/>
<path d="M259.908 11.4563C259.022 11.5556 258.143 11.6336 257.264 11.747C256.385 11.8604 255.513 11.9809 254.626 12.0873C255.483 11.8471 256.358 11.6764 257.242 11.5768C258.126 11.4658 259.018 11.4255 259.908 11.4563Z" fill="#263238"/>
<path d="M259.823 13.1791C258.932 13.1519 258.045 13.05 257.172 12.8743C256.296 12.7114 255.441 12.4474 254.626 12.0873C256.339 12.5402 258.073 12.9046 259.823 13.1791Z" fill="#263238"/>
<path d="M219.796 20.6583C220.553 21.5417 221.229 22.4907 221.817 23.4941C222.418 24.4909 222.869 25.5705 223.157 26.6985C222.756 25.6144 222.255 24.57 221.661 23.5791C221.377 23.0758 221.065 22.5937 220.753 22.1045C220.441 21.6154 220.129 21.1333 219.796 20.6583Z" fill="#263238"/>
<path d="M215.84 21.3035C216.196 21.3791 216.556 21.4335 216.918 21.4666C217.275 21.5112 217.636 21.5278 217.996 21.5162C218.356 21.5187 218.717 21.4927 219.073 21.4382C219.433 21.3823 219.788 21.3018 220.137 21.1972C219.81 21.3683 219.462 21.4947 219.102 21.5729C218.74 21.6484 218.372 21.6888 218.003 21.6935C217.263 21.707 216.529 21.5745 215.84 21.3035Z" fill="#263238"/>
<path d="M220.264 16.8445C220.464 17.5545 220.555 18.2908 220.534 19.028C220.523 19.3987 220.488 19.7682 220.427 20.134C220.367 20.4975 220.27 20.8539 220.137 21.1974C220.2 20.8358 220.264 20.4884 220.293 20.1127C220.321 19.737 220.356 19.4038 220.356 19.028C220.356 18.6523 220.356 18.3191 220.356 17.9363C220.356 17.5534 220.307 17.2061 220.264 16.8445Z" fill="#263238"/>
<path d="M215.351 19.3611C215.713 19.5965 216.086 19.8119 216.471 20.0062C216.855 20.1967 217.247 20.3671 217.648 20.5166C218.454 20.8283 219.287 21.0656 220.137 21.2256C219.703 21.2149 219.271 21.1651 218.846 21.0767C218.42 20.9853 218.001 20.8645 217.592 20.7151C216.769 20.4027 216.01 19.9439 215.351 19.3611Z" fill="#263238"/>
<path d="M218.698 16.3268C219.156 17.0521 219.507 17.8402 219.74 18.6663C219.858 19.0789 219.952 19.4978 220.023 19.9211C220.089 20.3435 220.127 20.7698 220.137 21.1972C219.994 20.3602 219.805 19.5318 219.57 18.7159C219.463 18.3118 219.321 17.9077 219.18 17.5107C219.038 17.1137 218.882 16.7167 218.698 16.3268Z" fill="#263238"/>
<path d="M215.897 18.0282C216.606 18.567 217.315 19.12 218.024 19.6517C218.733 20.1834 219.442 20.7009 220.151 21.2326C219.37 20.8166 218.621 20.3426 217.911 19.8147C217.193 19.2738 216.52 18.6764 215.897 18.0282Z" fill="#263238"/>
<path d="M217.152 16.8089C217.772 17.4466 218.339 18.1342 218.846 18.8648C219.368 19.5882 219.801 20.3712 220.137 21.1972C219.221 19.6819 218.225 18.217 217.152 16.8089Z" fill="#263238"/>
<path d="M222.093 13.732C222.149 14.8016 222.109 15.874 221.973 16.9364C221.858 17.9978 221.62 19.0421 221.264 20.0487C221.714 17.9696 221.992 15.8568 222.093 13.732Z" fill="#263238"/>
<path d="M218.435 12.1017C218.69 12.3641 218.967 12.598 219.243 12.8107C219.521 13.0415 219.815 13.2523 220.122 13.4416C220.422 13.6412 220.738 13.8166 221.065 13.9663C221.397 14.1159 221.738 14.2437 222.086 14.3491C221.72 14.3069 221.361 14.2213 221.016 14.0939C220.67 13.9575 220.338 13.789 220.023 13.5905C219.403 13.2015 218.863 12.6959 218.435 12.1017Z" fill="#263238"/>
<path d="M224.582 10.7971C224.355 11.5013 224.026 12.1679 223.603 12.7751C223.387 13.0792 223.15 13.3682 222.894 13.64C222.641 13.902 222.363 14.1393 222.065 14.3489C222.313 14.0795 222.561 13.8172 222.774 13.5266C222.987 13.2359 223.228 12.9594 223.426 12.6546C223.625 12.3497 223.823 12.0449 224.015 11.7329C224.206 11.421 224.412 11.1233 224.582 10.7971Z" fill="#263238"/>
<path d="M219.094 10.23C219.264 10.6269 219.458 11.0129 219.676 11.3856C219.89 11.7563 220.127 12.1138 220.385 12.4561C220.893 13.1532 221.465 13.8012 222.093 14.3915C221.737 14.142 221.402 13.8622 221.094 13.5549C220.786 13.2458 220.501 12.9141 220.243 12.5624C219.722 11.8609 219.333 11.0706 219.094 10.23Z" fill="#263238"/>
<path d="M223.554 9.52109C223.537 10.3776 223.399 11.2275 223.142 12.0449C223.012 12.4543 222.861 12.8565 222.689 13.2501C222.513 13.6389 222.312 14.0155 222.086 14.3773C222.423 13.5995 222.719 12.8044 222.972 11.9953C223.107 11.5912 223.206 11.18 223.306 10.7688C223.405 10.3576 223.49 9.93227 223.554 9.52109Z" fill="#263238"/>
<path d="M220.3 9.3649C220.59 10.2014 220.867 11.0451 221.172 11.8745C221.477 12.704 221.781 13.5335 222.086 14.37C221.661 13.5891 221.299 12.7761 221.002 11.9383C220.704 11.0991 220.469 10.2389 220.3 9.3649Z" fill="#263238"/>
<path d="M222.001 9.06015C222.166 9.93502 222.261 10.8216 222.285 11.7116C222.322 12.6024 222.255 13.4946 222.086 14.3701C222.15 12.5998 222.122 10.8275 222.001 9.06015Z" fill="#263238"/>
<path d="M215.876 37.1697C216.761 36.4264 217.71 35.7621 218.712 35.1846C219.717 34.5942 220.804 34.1547 221.937 33.8802C220.85 34.2683 219.8 34.7572 218.804 35.3406C218.293 35.6171 217.804 35.9219 217.315 36.2268C216.826 36.5316 216.358 36.8436 215.876 37.1697Z" fill="#263238"/>
<path d="M216.471 41.1324C216.557 40.7709 216.606 40.4235 216.656 40.0548C216.696 39.6971 216.715 39.3373 216.713 38.9773C216.72 38.6169 216.698 38.2566 216.649 37.8997C216.598 37.5381 216.522 37.1804 216.422 36.8292C216.584 37.1606 216.706 37.5105 216.783 37.8713C216.854 38.2357 216.89 38.6061 216.89 38.9773C216.894 39.7162 216.752 40.4486 216.471 41.1324Z" fill="#263238"/>
<path d="M212.069 36.6521C212.783 36.4621 213.521 36.3809 214.259 36.411C214.628 36.4239 214.995 36.4618 215.358 36.5245C215.722 36.5926 216.078 36.6947 216.422 36.8293C216.06 36.7655 215.713 36.7017 215.344 36.6592C214.975 36.6166 214.635 36.5883 214.252 36.5812C213.87 36.5741 213.543 36.5812 213.161 36.5812C212.778 36.5812 212.43 36.6166 212.069 36.6521Z" fill="#263238"/>
<path d="M214.522 41.5932C214.766 41.2372 214.986 40.8654 215.181 40.4802C215.38 40.1004 215.557 39.7099 215.713 39.3105C216.022 38.5058 216.259 37.6755 216.422 36.8292C216.404 37.2658 216.347 37.7 216.252 38.1265C216.158 38.5513 216.032 38.9683 215.876 39.3743C215.564 40.1906 215.105 40.9428 214.522 41.5932Z" fill="#263238"/>
<path d="M211.537 38.2045C212.27 37.7586 213.062 37.4196 213.891 37.1978C214.304 37.0852 214.723 36.9976 215.146 36.9355C215.568 36.8684 215.994 36.8329 216.422 36.8292C215.584 36.9658 214.753 37.1457 213.933 37.368C213.522 37.4743 213.125 37.609 212.721 37.7437C212.317 37.8784 211.963 38.0344 211.537 38.2045Z" fill="#263238"/>
<path d="M213.168 41.0332C213.714 40.3243 214.274 39.6508 214.812 38.9419C215.351 38.2329 215.883 37.524 216.422 36.8151C215.993 37.5954 215.503 38.3398 214.954 39.0411C214.408 39.7481 213.811 40.4139 213.168 41.0332Z" fill="#263238"/>
<path d="M211.998 39.7571C212.65 39.1472 213.349 38.5901 214.089 38.0911C214.819 37.5797 215.607 37.1562 216.436 36.8292C214.907 37.727 213.425 38.7043 211.998 39.7571Z" fill="#263238"/>
<path d="M232.011 22.7145C231.436 23.7158 230.774 24.6647 230.033 25.5502C229.3 26.4562 228.438 27.2492 227.474 27.9039C228.356 27.157 229.167 26.3312 229.899 25.4368C230.274 24.9972 230.608 24.5435 230.976 24.0827C231.345 23.6219 231.678 23.1824 232.011 22.7145Z" fill="#263238"/>
<path d="M230.062 19.2051C230.111 19.5654 230.18 19.9227 230.267 20.2756C230.354 20.6273 230.462 20.9731 230.593 21.3107C230.712 21.6509 230.859 21.9805 231.033 22.2961C231.211 22.6131 231.405 22.9207 231.614 23.2177C231.344 22.9645 231.106 22.6787 230.905 22.367C230.309 21.4228 230.01 20.3212 230.048 19.2051H230.062Z" fill="#263238"/>
<path d="M235.762 21.8567C235.158 22.2848 234.494 22.6194 233.791 22.8492C233.442 22.9695 233.084 23.062 232.72 23.1257C232.355 23.1918 231.985 23.2227 231.614 23.2179C231.983 23.1541 232.323 23.0902 232.692 22.9981C233.044 22.9124 233.392 22.8083 233.734 22.6862C234.081 22.5727 234.443 22.438 234.762 22.3033C235.081 22.1686 235.428 22.0197 235.762 21.8567Z" fill="#263238"/>
<path d="M231.728 18.092C231.621 18.5088 231.545 18.933 231.501 19.361C231.444 19.7864 231.416 20.2151 231.416 20.6442C231.408 21.5062 231.474 22.3672 231.614 23.2177C231.482 22.8035 231.385 22.379 231.324 21.9487C231.26 21.5169 231.232 21.0806 231.239 20.6442C231.243 19.7706 231.409 18.9054 231.728 18.092Z" fill="#263238"/>
<path d="M235.712 20.212C235.183 20.8884 234.56 21.4853 233.862 21.9844C233.514 22.2413 233.152 22.478 232.777 22.6933C232.403 22.9037 232.015 23.0862 231.614 23.2392C232.348 22.8203 233.058 22.3611 233.741 21.8639C234.096 21.6228 234.45 21.3534 234.748 21.084C235.046 20.8146 235.407 20.5098 235.712 20.212Z" fill="#263238"/>
<path d="M233.231 18.1418C232.961 18.9854 232.678 19.8219 232.423 20.6727C232.167 21.5234 231.912 22.367 231.65 23.2178C231.921 21.4565 232.454 19.7457 233.231 18.1418Z" fill="#263238"/>
<path d="M234.734 18.9216C234.342 19.72 233.887 20.4857 233.372 21.2114C232.868 21.9475 232.278 22.621 231.614 23.2177C232.73 21.8421 233.771 20.408 234.734 18.9216Z" fill="#263238"/>
<path d="M228.63 19.021L228.013 20.9068C227.814 21.5377 227.609 22.1687 227.432 22.8067C227.254 23.4448 227.063 24.0828 226.914 24.7208C226.75 25.3626 226.625 26.0137 226.538 26.6704C226.611 25.3416 226.849 24.027 227.247 22.7571C227.625 21.4826 228.087 20.2345 228.63 19.021Z" fill="#263238"/>
<path d="M232.635 18.8436C232.018 19.2492 231.326 19.5287 230.601 19.666C230.236 19.7365 229.866 19.7721 229.495 19.7723C229.126 19.7632 228.759 19.7108 228.403 19.6164C228.766 19.6411 229.131 19.6411 229.495 19.6164C229.854 19.5999 230.212 19.5549 230.565 19.4817C230.921 19.4161 231.271 19.3261 231.614 19.2123C231.961 19.1092 232.302 18.9861 232.635 18.8436Z" fill="#263238"/>
<path d="M227.396 15.3769C227.432 15.7385 227.481 16.0859 227.538 16.4616C227.595 16.8373 227.658 17.1706 227.751 17.5321C227.823 17.8897 227.918 18.2425 228.034 18.5884C228.133 18.9358 228.268 19.2974 228.403 19.6164C228.206 19.3037 228.037 18.9739 227.9 18.631C227.769 18.2861 227.66 17.9333 227.573 17.5747C227.408 16.8545 227.349 16.1142 227.396 15.3769Z" fill="#263238"/>
<path d="M232.72 16.8445C232.19 17.5384 231.539 18.1315 230.799 18.5956C230.428 18.8251 230.042 19.0289 229.643 19.2053C229.242 19.3762 228.827 19.5137 228.403 19.6164C229.203 19.2981 229.972 18.9065 230.7 18.4467C231.064 18.2196 231.414 17.9711 231.749 17.7023C232.091 17.4374 232.415 17.1509 232.72 16.8445Z" fill="#263238"/>
<path d="M228.821 14.5545C228.729 14.9727 228.658 15.391 228.594 15.8093C228.53 16.2276 228.481 16.6529 228.46 17.0712C228.395 17.9179 228.376 18.7675 228.403 19.6163C228.327 19.1946 228.279 18.7683 228.261 18.3402C228.233 17.9129 228.233 17.4843 228.261 17.057C228.326 16.2002 228.515 15.3573 228.821 14.5545Z" fill="#263238"/>
<path d="M231.905 15.6179C231.426 16.3669 230.891 17.078 230.303 17.7447C229.721 18.4169 229.086 19.0405 228.403 19.6092C228.991 18.9428 229.601 18.2976 230.168 17.6241C230.735 16.9507 231.324 16.2914 231.905 15.6179Z" fill="#263238"/>
<path d="M230.437 14.7104C229.676 16.3098 228.997 17.9472 228.403 19.6162C228.569 18.7411 228.833 17.8873 229.19 17.0711C229.543 16.2527 229.96 15.4634 230.437 14.7104Z" fill="#263238"/>
<path d="M243.517 3.96294L242.163 5.38081C241.717 5.86998 241.263 6.35205 240.838 6.8554C240.412 7.35875 239.966 7.855 239.554 8.37253C239.142 8.88915 238.757 9.42626 238.399 9.98181C239.031 8.8114 239.805 7.72327 240.703 6.74197C241.581 5.75669 242.521 4.82846 243.517 3.96294Z" fill="#263238"/>
<path d="M247.225 5.49442C246.495 5.60213 245.75 5.56357 245.035 5.38099C244.676 5.2912 244.327 5.16777 243.992 5.01234C243.658 4.85279 243.346 4.65021 243.064 4.40974C243.379 4.58938 243.706 4.74805 244.042 4.88473C244.378 5.0211 244.724 5.13016 245.077 5.21084C245.426 5.30219 245.782 5.36852 246.141 5.40934C246.5 5.45937 246.862 5.48778 247.225 5.49442Z" fill="#263238"/>
<path d="M243.936 0.14151C243.815 0.48889 243.709 0.850449 243.61 1.18365C243.51 1.51685 243.418 1.89259 243.347 2.24706C243.276 2.60153 243.213 2.956 243.163 3.31756C243.113 3.67911 243.085 4.02649 243.064 4.40932C243.016 4.04505 243.004 3.67703 243.028 3.31046C243.049 2.94085 243.099 2.57345 243.177 2.21161C243.327 1.48818 243.583 0.79071 243.936 0.14151Z" fill="#263238"/>
<path d="M248.118 3.71468C247.346 4.12542 246.505 4.38981 245.637 4.49451C245.204 4.54758 244.768 4.5689 244.333 4.55831C243.897 4.54807 243.462 4.49824 243.035 4.40944C243.896 4.45692 244.76 4.42607 245.616 4.31728C246.469 4.20506 247.308 4.00307 248.118 3.71468Z" fill="#263238"/>
<path d="M245.58 0C245.318 0.333201 245.077 0.708939 244.871 1.04214C244.666 1.37534 244.411 1.75108 244.212 2.12681C243.798 2.86695 243.424 3.629 243.092 4.4096C243.201 3.9974 243.336 3.59249 243.496 3.19731C243.659 2.80031 243.858 2.41748 244.056 2.04174C244.466 1.29296 244.979 0.605634 245.58 0Z" fill="#263238"/>
<path d="M247.927 2.26151C246.42 3.20633 244.781 3.92302 243.064 4.38832C243.879 4.03385 244.701 3.67938 245.502 3.332C246.304 2.98462 247.112 2.62306 247.927 2.26151Z" fill="#263238"/>
<path d="M246.977 0.822464C245.611 1.949 244.305 3.14638 243.064 4.40969C243.579 3.68428 244.179 3.02269 244.85 2.43884C245.513 1.84229 246.225 1.30165 246.977 0.822464Z" fill="#263238"/>
<path d="M236.478 35.1068C235.414 34.9783 234.364 34.7601 233.337 34.4546C232.309 34.1565 231.32 33.7402 230.388 33.2139C232.362 34.0118 234.399 34.6449 236.478 35.1068Z" fill="#263238"/>
<path d="M238.69 31.7675C238.393 31.9878 238.109 32.2245 237.839 32.4765C237.564 32.7111 237.306 32.9646 237.066 33.235C236.806 33.4957 236.569 33.7779 236.357 34.0787C236.156 34.3814 235.974 34.6963 235.811 35.0216C235.911 34.6663 236.056 34.3255 236.244 34.0078C236.432 33.6881 236.653 33.3888 236.903 33.1145C237.403 32.5514 238.011 32.0935 238.69 31.7675Z" fill="#263238"/>
<path d="M238.952 38.0488C238.297 37.7079 237.695 37.2732 237.165 36.7586C236.913 36.4966 236.676 36.2196 236.456 35.9291C236.232 35.6372 236.037 35.3237 235.875 34.9933C236.095 35.284 236.322 35.5746 236.584 35.844C236.846 36.1134 237.073 36.3828 237.343 36.631C237.612 36.8791 237.867 37.1272 238.151 37.3399C238.434 37.5526 238.661 37.8291 238.952 38.0488Z" fill="#263238"/>
<path d="M240.448 32.7315C240.029 32.8344 239.617 32.9622 239.214 33.1143C238.811 33.262 238.418 33.4348 238.037 33.6319C237.267 34.0176 236.534 34.4732 235.847 34.993C236.151 34.6797 236.483 34.3949 236.839 34.1423C237.195 33.8905 237.57 33.6654 237.959 33.4688C238.738 33.0766 239.581 32.8269 240.448 32.7315Z" fill="#263238"/>
<path d="M240.391 37.2477C239.549 37.0893 238.735 36.8099 237.973 36.4183C237.59 36.2255 237.218 36.0101 236.86 35.7731C236.505 35.5372 236.166 35.2766 235.847 34.9933C236.557 35.4571 237.293 35.8808 238.051 36.2623C238.427 36.4608 238.817 36.6239 239.2 36.794C239.583 36.9642 239.987 37.113 240.391 37.2477Z" fill="#263238"/>
<path d="M241.079 34.0576C240.207 34.2135 239.328 34.3412 238.456 34.5042C237.584 34.6673 236.719 34.8303 235.847 34.9934C236.687 34.7008 237.55 34.478 238.427 34.327C239.303 34.1699 240.189 34.0799 241.079 34.0576Z" fill="#263238"/>
<path d="M241.093 35.7873C240.204 35.8098 239.315 35.7577 238.434 35.6314C237.55 35.5196 236.682 35.3054 235.847 34.9933C237.581 35.3471 239.332 35.6121 241.093 35.7873Z" fill="#263238"/>
<path d="M237.555 30.215C236.467 30.6211 235.345 30.9295 234.202 31.1366C233.058 31.3582 231.887 31.4108 230.728 31.2926C231.882 31.2885 233.033 31.1769 234.167 30.9594C234.741 30.8672 235.301 30.7396 235.868 30.6191C236.435 30.4985 236.995 30.3638 237.555 30.215Z" fill="#263238"/>
<path d="M238.314 26.2806C238.12 26.5878 237.943 26.9048 237.782 27.2305C237.622 27.5548 237.482 27.8886 237.364 28.2301C237.239 28.5691 237.142 28.9176 237.073 29.2723C237.001 29.6277 236.953 29.9878 236.931 30.3499C236.885 29.985 236.885 29.6159 236.931 29.251C237.088 28.1472 237.566 27.114 238.307 26.2806H238.314Z" fill="#263238"/>
<path d="M240.979 31.9732C240.25 31.9072 239.534 31.7377 238.853 31.4698C238.507 31.335 238.173 31.1739 237.853 30.9877C237.532 30.8062 237.23 30.5924 236.953 30.3497C237.272 30.534 237.584 30.7112 237.917 30.8672C238.241 31.0324 238.575 31.1791 238.916 31.3068C239.25 31.4415 239.625 31.5549 239.944 31.6683C240.263 31.7817 240.618 31.881 240.979 31.9732Z" fill="#263238"/>
<path d="M240.32 26.493C239.969 26.744 239.637 27.0213 239.328 27.3224C239.012 27.6125 238.716 27.9228 238.441 28.2511C237.875 28.9099 237.374 29.6222 236.946 30.3779C237.107 29.974 237.304 29.5849 237.534 29.2153C237.764 28.844 238.023 28.4909 238.307 28.159C238.868 27.4826 239.551 26.9175 240.32 26.493Z" fill="#263238"/>
<path d="M241.993 30.6758C241.155 30.8564 240.295 30.9138 239.441 30.8459C239.013 30.8165 238.587 30.7621 238.165 30.6829C237.746 30.6002 237.334 30.4888 236.931 30.3497C237.766 30.5057 238.608 30.6122 239.455 30.6687C239.873 30.7112 240.299 30.7112 240.724 30.7183C241.149 30.7254 241.568 30.7112 241.993 30.6758Z" fill="#263238"/>
<path d="M241.398 27.4713C240.646 27.9534 239.888 28.4071 239.15 28.8892C238.413 29.3713 237.676 29.8605 236.931 30.3071C237.593 29.7134 238.305 29.1774 239.058 28.7049C239.803 28.2308 240.586 27.8182 241.398 27.4713Z" fill="#263238"/>
<path d="M242.078 29.0592C241.264 29.4218 240.423 29.7182 239.561 29.9454C238.703 30.1822 237.821 30.3178 236.931 30.3495C238.669 30.0115 240.387 29.5808 242.078 29.0592Z" fill="#263238"/>
<path d="M234.812 24.7489L233.436 26.1668C232.976 26.6489 232.515 27.1238 232.082 27.6201C231.65 28.1164 231.196 28.6055 230.778 29.123C230.353 29.6295 229.958 30.1597 229.594 30.7111C230.242 29.5493 231.033 28.4728 231.948 27.5067C232.841 26.5255 233.797 25.6043 234.812 24.7489Z" fill="#263238"/>
<path d="M238.491 26.3442C237.758 26.4367 237.014 26.3861 236.3 26.1953C235.944 26.0971 235.598 25.9666 235.265 25.8054C234.936 25.6389 234.629 25.4317 234.351 25.1886C234.661 25.3769 234.986 25.5405 235.322 25.6778C235.652 25.821 235.994 25.9372 236.343 26.0252C236.692 26.1205 237.047 26.1916 237.406 26.2379C237.768 26.2875 238.129 26.33 238.491 26.3442Z" fill="#263238"/>
<path d="M235.294 20.9351C235.166 21.2825 235.053 21.644 234.946 21.9772C234.739 22.6747 234.578 23.3852 234.464 24.104C234.407 24.4585 234.379 24.813 234.351 25.1887C234.315 24.8233 234.315 24.4553 234.351 24.0899C234.38 23.7203 234.435 23.3532 234.514 22.991C234.669 22.2704 234.932 21.5773 235.294 20.9351Z" fill="#263238"/>
<path d="M239.441 24.5789C238.66 24.9667 237.814 25.207 236.945 25.2878C236.512 25.3339 236.076 25.3482 235.641 25.3303C235.207 25.3125 234.775 25.2556 234.351 25.1602C235.208 25.2217 236.07 25.2051 236.924 25.1106C237.351 25.0685 237.775 24.9974 238.193 24.8979C238.616 24.8187 239.032 24.7121 239.441 24.5789Z" fill="#263238"/>
<path d="M236.931 20.8215C236.669 21.1547 236.421 21.5305 236.18 21.8495C235.939 22.1685 235.712 22.5584 235.471 22.9271C235.042 23.6579 234.657 24.413 234.315 25.1886C234.426 24.7767 234.569 24.3738 234.741 23.9834C234.911 23.5902 235.102 23.2068 235.315 22.8349C235.755 22.0904 236.3 21.4124 236.931 20.8215Z" fill="#263238"/>
<path d="M239.242 23.1186C238.487 23.5878 237.695 23.9956 236.875 24.338C236.058 24.6912 235.214 24.9758 234.351 25.1887C235.173 24.8485 235.995 24.5294 236.804 24.175C237.612 23.8205 238.427 23.4731 239.242 23.1186Z" fill="#263238"/>
<path d="M238.314 21.6652C236.933 22.7783 235.61 23.9614 234.351 25.2099C234.879 24.4926 235.491 23.8405 236.173 23.2674C236.842 22.6763 237.558 22.1405 238.314 21.6652Z" fill="#263238"/>
<path d="M226.028 43.2381C225.898 42.1752 225.86 41.1031 225.914 40.0337C225.958 38.9637 226.127 37.9025 226.418 36.8718C226.111 38.9793 225.98 41.1088 226.028 43.2381Z" fill="#263238"/>
<path d="M229.799 44.5921C229.525 44.3556 229.239 44.1332 228.942 43.9257C228.647 43.7167 228.339 43.5273 228.02 43.3586C227.705 43.1788 227.376 43.027 227.035 42.9049C226.694 42.7809 226.346 42.6791 225.992 42.6C226.36 42.6129 226.725 42.6724 227.077 42.7772C227.432 42.8877 227.776 43.0301 228.105 43.2026C228.754 43.5527 229.329 44.0245 229.799 44.5921Z" fill="#263238"/>
<path d="M223.766 46.3859C223.939 45.6655 224.219 44.9749 224.596 44.337C224.78 44.0166 224.989 43.7108 225.22 43.4225C225.452 43.1362 225.71 42.8727 225.992 42.6356C225.758 42.9192 225.532 43.2027 225.326 43.5076C225.12 43.8124 224.922 44.1102 224.745 44.4292C224.567 44.7482 224.39 45.0602 224.227 45.3863C224.064 45.7124 223.908 46.0101 223.766 46.3859Z" fill="#263238"/>
<path d="M229.282 46.5275C229.084 46.1445 228.862 45.7751 228.615 45.4216C228.376 45.0661 228.116 44.7252 227.836 44.4007C227.277 43.7462 226.66 43.1435 225.992 42.6C226.365 42.8237 226.718 43.0774 227.049 43.3586C227.377 43.6466 227.685 43.9569 227.97 44.2873C228.542 44.9469 228.986 45.7064 229.282 46.5275Z" fill="#263238"/>
<path d="M224.886 47.5555C224.838 46.6983 224.914 45.8385 225.113 45.0033C225.209 44.5852 225.33 44.1733 225.475 43.7698C225.618 43.3676 225.791 42.9766 225.992 42.6C225.711 43.4015 225.474 44.2181 225.283 45.0458C225.184 45.4499 225.113 45.8682 225.042 46.2865C224.972 46.7048 224.915 47.1301 224.886 47.5555Z" fill="#263238"/>
<path d="M228.148 47.4562C227.786 46.641 227.439 45.8257 227.084 45.0175C226.73 44.2093 226.375 43.4082 225.992 42.6C226.474 43.3465 226.894 44.1313 227.247 44.9466C227.612 45.7584 227.913 46.5975 228.148 47.4562Z" fill="#263238"/>
<path d="M226.467 47.8887C226.24 47.0279 226.079 46.151 225.985 45.2656C225.882 44.3801 225.882 43.4856 225.985 42.6C226.054 44.3701 226.215 46.1354 226.467 47.8887Z" fill="#263238"/>
<path d="M230.679 41.9691C230.079 41.0701 229.557 40.1214 229.119 39.1334C228.672 38.1618 228.341 37.141 228.133 36.092C228.817 38.1184 229.668 40.0843 230.679 41.9691Z" fill="#263238"/>
<path d="M234.649 41.4658C234.294 41.3737 233.94 41.317 233.578 41.2602C233.221 41.2075 232.861 41.1791 232.501 41.1752C232.138 41.161 231.776 41.1752 231.416 41.2177C231.055 41.2604 230.697 41.3268 230.345 41.4162C230.684 41.2661 231.038 41.1543 231.402 41.083C232.498 40.8891 233.627 41.0223 234.649 41.4658Z" fill="#263238"/>
<path d="M230.076 45.7689C229.822 44.6864 229.805 43.5619 230.026 42.4723C230.103 42.111 230.212 41.7575 230.353 41.416C230.282 41.7776 230.204 42.125 230.161 42.4936C230.107 42.8529 230.074 43.2151 230.062 43.5783C230.062 43.9469 230.062 44.2872 230.062 44.67C230.062 45.0529 230.048 45.4003 230.076 45.7689Z" fill="#263238"/>
<path d="M235.074 43.4295C234.724 43.169 234.357 42.9322 233.975 42.7205C233.6 42.5149 233.215 42.3303 232.82 42.1676C232.022 41.8378 231.196 41.5793 230.352 41.3948C230.787 41.4257 231.219 41.4921 231.643 41.5933C232.066 41.6984 232.481 41.8359 232.883 42.0045C233.697 42.3373 234.44 42.8207 235.074 43.4295Z" fill="#263238"/>
<path d="M231.622 46.336C231.188 45.5957 230.865 44.7954 230.664 43.9611C230.56 43.5455 230.479 43.1242 230.423 42.6992C230.372 42.2735 230.348 41.8448 230.353 41.416C230.467 42.2585 230.628 43.094 230.835 43.9186C230.927 44.3298 231.054 44.7339 231.182 45.1379C231.31 45.542 231.451 45.939 231.622 46.336Z" fill="#263238"/>
<path d="M234.478 44.7693C233.77 44.2092 233.124 43.6279 232.43 43.0749C231.735 42.522 231.047 41.9761 230.352 41.416C231.122 41.8651 231.854 42.3748 232.543 42.9402C233.234 43.4998 233.881 44.1113 234.478 44.7693Z" fill="#263238"/>
<path d="M233.181 45.9107C232.586 45.2445 232.043 44.5335 231.558 43.7839C231.067 43.0383 230.662 42.2392 230.352 41.4019C231.216 42.9532 232.16 44.4582 233.181 45.9107Z" fill="#263238"/>
<path d="M234.649 38.7931C233.628 38.2342 232.66 37.5841 231.756 36.8506C230.839 36.1329 230.033 35.2822 229.367 34.3268C230.123 35.2011 230.961 36.0011 231.869 36.7159C232.316 37.0845 232.777 37.4248 233.238 37.7722C233.699 38.1196 234.174 38.4599 234.649 38.7931Z" fill="#263238"/>
<path d="M238.129 36.7868C237.769 36.844 237.412 36.9197 237.059 37.0137C236.71 37.1033 236.366 37.2146 236.031 37.3469C235.694 37.4759 235.367 37.6299 235.053 37.8077C234.737 37.9846 234.433 38.1836 234.145 38.4032C234.392 38.1318 234.674 37.8935 234.982 37.6942C235.294 37.4935 235.623 37.3226 235.967 37.1838C236.656 36.9145 237.39 36.7797 238.129 36.7868Z" fill="#263238"/>
<path d="M235.563 42.5292C234.907 41.6288 234.457 40.5954 234.245 39.5021C234.176 39.1398 234.143 38.7718 234.145 38.4032C234.205 38.7638 234.283 39.1211 234.379 39.4737C234.466 39.8274 234.575 40.1755 234.705 40.5158C234.819 40.8561 234.961 41.2248 235.102 41.5296C235.244 41.8345 235.393 42.196 235.563 42.5292Z" fill="#263238"/>
<path d="M239.271 38.4385C238.851 38.3401 238.424 38.2691 237.995 38.2258C237.569 38.1904 237.137 38.1549 236.712 38.162C235.851 38.168 234.992 38.2487 234.145 38.4031C234.556 38.2634 234.978 38.1591 235.407 38.0911C235.839 38.0238 236.275 37.9882 236.712 37.9848C237.586 37.9752 238.454 38.1291 239.271 38.4385Z" fill="#263238"/>
<path d="M237.208 42.4512C236.523 41.9334 235.917 41.3198 235.407 40.6293C235.15 40.287 234.913 39.9295 234.698 39.5588C234.483 39.1879 234.296 38.8017 234.138 38.4032C234.568 39.1396 235.042 39.8498 235.556 40.53C235.804 40.8774 236.074 41.1964 236.35 41.5225C236.627 41.8486 236.903 42.1322 237.208 42.4512Z" fill="#263238"/>
<path d="M239.243 39.9061C238.392 39.6509 237.548 39.3744 236.697 39.1333C235.847 38.8923 234.996 38.6513 234.145 38.4244C235.026 38.5435 235.896 38.7308 236.747 38.9845C237.601 39.2274 238.436 39.5355 239.243 39.9061Z" fill="#263238"/>
<path d="M238.484 41.4587C237.68 41.0782 236.907 40.6349 236.173 40.133C235.431 39.6389 234.75 39.0582 234.145 38.4032C235.537 39.4975 236.985 40.5174 238.484 41.4587Z" fill="#263238"/>
<path d="M222.788 43.3586L223.213 41.4161C223.348 40.7639 223.497 40.1188 223.61 39.4665C223.724 38.8143 223.844 38.1621 223.937 37.5099C224.031 36.8542 224.091 36.194 224.114 35.5319C224.17 36.864 224.058 38.1978 223.781 39.502C223.535 40.808 223.203 42.0963 222.788 43.3586Z" fill="#263238"/>
<path d="M218.818 43.9186C219.391 43.4546 220.052 43.11 220.76 42.9048C221.116 42.7952 221.482 42.7239 221.852 42.6921C222.219 42.6638 222.588 42.678 222.951 42.7347C222.23 42.7469 221.514 42.859 220.824 43.0679C220.48 43.1727 220.142 43.2958 219.811 43.4365C219.463 43.5854 219.137 43.7413 218.818 43.9186Z" fill="#263238"/>
<path d="M224.369 46.8607C224.298 46.4992 224.213 46.1518 224.121 45.7903C224.029 45.4287 223.93 45.0813 223.809 44.7481C223.688 44.4149 223.561 44.0392 223.426 43.7272C223.291 43.4153 223.121 43.0679 222.951 42.7347C223.177 43.0281 223.377 43.3413 223.547 43.6705C223.713 44 223.855 44.3412 223.972 44.6914C224.213 45.3903 224.347 46.1217 224.369 46.8607Z" fill="#263238"/>
<path d="M218.931 45.9181C219.388 45.1747 219.976 44.5212 220.668 43.9898C221.015 43.7275 221.38 43.4906 221.76 43.2809C222.14 43.0656 222.539 42.8852 222.951 42.7421C222.187 43.1482 221.461 43.6228 220.782 44.1599C220.104 44.6888 219.484 45.2876 218.931 45.9465V45.9181Z" fill="#263238"/>
<path d="M223.029 47.8037C223.086 47.3783 223.114 46.953 223.135 46.5276C223.157 46.1022 223.135 45.684 223.135 45.2586C223.115 44.4097 223.049 43.5624 222.937 42.7206C223.055 43.1323 223.145 43.5515 223.206 43.9754C223.263 44.4011 223.299 44.8294 223.313 45.2586C223.339 46.1161 223.244 46.973 223.029 47.8037Z" fill="#263238"/>
<path d="M219.86 47.0948C220.261 46.3012 220.723 45.5402 221.243 44.8191C221.759 44.0936 222.33 43.4087 222.951 42.7703C222.434 43.4793 221.895 44.1882 221.384 44.8971C220.874 45.6061 220.371 46.3363 219.86 47.0948Z" fill="#263238"/>
<path d="M221.413 47.8037C222.013 46.1371 222.527 44.4405 222.951 42.7206C222.878 43.6112 222.697 44.4897 222.412 45.3366C222.147 46.185 221.813 47.0102 221.413 47.8037Z" fill="#263238"/>
<path d="M219.293 41.1822L220.399 39.5304C220.768 38.9774 221.108 38.4244 221.477 37.8644C221.845 37.3043 222.185 36.7372 222.497 36.1629C222.829 35.5897 223.127 34.998 223.391 34.3906C222.95 35.6389 222.36 36.8292 221.632 37.9353C220.924 39.067 220.142 40.1516 219.293 41.1822Z" fill="#263238"/>
<path d="M215.394 40.2536C216.46 39.9329 217.596 39.9329 218.662 40.2536C219.015 40.356 219.354 40.5037 219.669 40.6932C219.329 40.5646 218.981 40.4604 218.627 40.3812C218.277 40.301 217.921 40.2489 217.563 40.2253C217.202 40.2005 216.84 40.2005 216.478 40.2253C216.117 40.1827 215.755 40.204 215.394 40.2536Z" fill="#263238"/>
<path d="M219.484 45.025C219.548 44.6634 219.598 44.316 219.647 43.9403C219.697 43.5646 219.725 43.2314 219.733 42.8485C219.754 42.4849 219.754 42.1204 219.733 41.7568C219.733 41.3952 219.697 41.0478 219.655 40.665C219.763 41.0185 219.837 41.3818 219.874 41.7497C219.899 42.1179 219.899 42.4874 219.874 42.8556C219.851 43.5939 219.72 44.3248 219.484 45.025Z" fill="#263238"/>
<path d="M214.798 42.1322C215.496 41.6061 216.284 41.2121 217.124 40.9695C217.524 40.8563 217.931 40.771 218.343 40.7143C218.773 40.6577 219.207 40.6363 219.64 40.6505C218.786 40.7423 217.941 40.9107 217.117 41.1538C216.704 41.2725 216.299 41.4169 215.904 41.5863C215.524 41.7436 215.155 41.9259 214.798 42.1322Z" fill="#263238"/>
<path d="M217.889 45.422C218.095 45.0462 218.272 44.6634 218.449 44.2735C218.627 43.8836 218.79 43.5007 218.924 43.1037C219.219 42.3059 219.468 41.4916 219.669 40.665C219.632 41.0925 219.563 41.5167 219.463 41.934C219.365 42.3499 219.242 42.7594 219.094 43.1605C218.803 43.9679 218.397 44.7295 217.889 45.422Z" fill="#263238"/>
<path d="M215.209 43.5501C215.875 42.958 216.586 42.4199 217.336 41.9408C218.079 41.4526 218.859 41.0235 219.669 40.6577C218.924 41.1397 218.166 41.5935 217.428 42.0755C216.691 42.5576 215.954 43.0751 215.209 43.5501Z" fill="#263238"/>
<path d="M216.379 44.8336C217.549 43.5033 218.647 42.1119 219.669 40.665C219.277 41.4679 218.789 42.2201 218.215 42.9052C217.655 43.5955 217.041 44.2403 216.379 44.8336Z" fill="#263238"/>
<path d="M273.789 95.5434C274.789 88.0996 274.257 72.7085 268.968 63.1166C265.424 56.6298 239.732 50.143 237.336 54.0705C234.939 57.9981 238.044 60.6282 243.092 63.9602C244.935 65.1725 256.484 69.4687 256.42 72.5951C256.342 77.1039 251.394 88.5604 251.394 88.5604L273.789 95.5434Z" fill="#EEB3AC"/>
<path d="M238.902 53.0922C244.29 51.2631 250.897 53.4466 257.136 56.0201C257.235 56.0626 257.179 56.2186 257.079 56.176C255.491 55.5238 244.375 52.4541 238.902 53.1985C238.902 53.2056 238.902 53.1134 238.902 53.0922Z" fill="#263238"/>
<path d="M273.789 95.5434C274.789 88.0995 274.257 72.7085 268.968 63.1165C265.424 56.6298 241.447 55.8287 239.044 59.7491C236.641 63.6695 240.873 67.7175 247.254 70.1634C249.317 70.9503 257.831 71.6947 257.774 74.8282C257.696 79.3299 257.391 90.4248 257.391 90.4248L273.789 95.5434Z" fill="#EEB3AC"/>
<path d="M257.802 83.7469C257.951 82.5701 258.008 82.1589 258.136 80.9679C258.263 79.7769 258.377 78.6071 258.419 77.4232C258.536 76.3899 258.473 75.3443 258.235 74.3322C257.892 73.3991 257.255 72.6028 256.42 72.0636C254.57 70.7804 252.11 70.5607 249.955 70.1707C247.551 69.7312 242.922 68.4055 240.575 65.9667C239.901 65.3277 239.367 64.5551 239.009 63.6981C238.717 63.0759 238.581 62.3924 238.612 61.706C239.094 58.8703 242.312 57.8848 245.027 57.5587C250.089 56.942 255.406 57.8919 260.312 59.1113C261.51 59.4161 262.708 59.7493 263.906 60.0755C265.306 60.3736 266.626 60.9682 267.777 61.8195C269.578 63.3153 270.975 67.5973 271.421 68.9088C271.457 69.0081 271.598 68.9088 271.57 68.845C271.045 67.2286 270.202 62.7056 267.196 60.4157C266.097 59.5792 264.651 59.2885 263.339 58.8915C262.028 58.4945 260.582 58.1117 259.192 57.7714C256.486 57.0961 253.732 56.6339 250.954 56.389C248.324 56.1763 245.424 56.07 242.872 56.8427C240.66 57.5162 238.619 59.3807 238.215 61.7273C237.896 63.6981 239.313 65.435 240.001 66.1865C240.678 66.9198 241.451 67.5588 242.298 68.0865C244.284 69.1398 246.343 70.0495 248.459 70.8088C250.55 71.5177 252.847 71.6382 254.839 72.5173C255.33 72.706 255.779 72.9916 256.157 73.3569C256.536 73.7223 256.838 74.16 257.044 74.6441C257.326 75.6401 257.459 76.6719 257.441 77.7068C257.625 79.6733 257.625 81.6528 257.441 83.6193C257.413 84.151 257.746 84.2432 257.802 83.7469Z" fill="#263238"/>
<path d="M272.513 101.683C273.321 98.4289 279.418 87.3199 280.042 82.8606C280.666 78.4014 280.793 61.2735 276.497 58.4094C271.124 54.815 268.777 67.98 268.274 73.8004C267.77 79.6208 262.106 85.4412 262.106 85.4412L272.513 101.683Z" fill="#EEB3AC"/>
<path d="M269.805 64.7402C269.711 66.6819 269.517 68.6175 269.224 70.5393C269.076 72.3799 268.791 74.2068 268.373 76.0052C267.828 77.748 266.999 79.3888 265.92 80.8615C265.409 81.5704 264.857 82.2794 264.282 82.9883C263.708 83.6972 262.949 84.4062 262.34 85.2002C262.269 85.2782 262.141 85.2002 262.205 85.108C263.266 83.6629 264.234 82.1522 265.105 80.585C266.042 78.9826 266.778 77.2705 267.295 75.4877C268.316 71.943 268.571 68.2353 269.564 64.6906C269.599 64.5488 269.812 64.6055 269.805 64.7402Z" fill="#263238"/>
<path d="M261.191 86.4408C260.265 87.6553 259.141 88.7051 257.866 89.5459C256.602 90.4035 255.28 91.1733 253.91 91.85C251.177 93.1985 248.275 94.1737 245.283 94.7495C243.808 95.0756 242.348 95.4585 240.923 95.898C239.502 96.3741 238.12 96.9596 236.79 97.6491C235.454 98.343 234.185 99.1569 232.997 100.081C231.793 100.994 230.647 101.982 229.565 103.037C231.536 100.702 233.893 98.7236 236.534 97.1883C239.223 95.7195 242.121 94.67 245.127 94.076C246.615 93.7216 248.083 93.4522 249.501 92.9701C250.929 92.5031 252.33 91.9564 253.698 91.3325C255.076 90.7285 256.412 90.0322 257.696 89.2482C258.991 88.4866 260.168 87.5409 261.191 86.4408Z" fill="#263238"/>
<path d="M161.203 146.126L181.18 106.546C181.18 106.546 154.652 87.2842 138.814 80.3154C129.938 76.4091 126.762 83.2433 129.662 91.5237C139.708 120.491 161.203 146.126 161.203 146.126Z" fill="#9D634F"/>
<path d="M161.203 146.126L181.18 106.546C181.18 106.546 154.652 87.2842 138.814 80.3154C129.938 76.4091 126.762 83.2433 129.662 91.5237C139.708 120.491 161.203 146.126 161.203 146.126Z" fill="#9D634F"/>
<path d="M168.008 110.24C167.529 110.24 167.06 110.382 166.661 110.648C166.263 110.915 165.952 111.293 165.768 111.737C165.585 112.18 165.537 112.667 165.63 113.137C165.724 113.608 165.955 114.04 166.294 114.379C166.633 114.718 167.065 114.949 167.535 115.042C168.006 115.136 168.493 115.088 168.936 114.904C169.379 114.721 169.758 114.41 170.024 114.011C170.291 113.613 170.433 113.144 170.433 112.664C170.433 112.021 170.178 111.405 169.723 110.95C169.268 110.495 168.651 110.24 168.008 110.24ZM168.008 114.664C167.478 114.664 166.97 114.453 166.595 114.078C166.22 113.703 166.009 113.195 166.009 112.664C166.008 112.267 166.124 111.878 166.344 111.547C166.564 111.216 166.878 110.958 167.244 110.805C167.611 110.652 168.015 110.612 168.405 110.689C168.795 110.766 169.153 110.958 169.434 111.239C169.715 111.52 169.906 111.878 169.984 112.268C170.061 112.657 170.02 113.061 169.868 113.428C169.715 113.795 169.457 114.108 169.126 114.328C168.795 114.548 168.406 114.665 168.008 114.664ZM146.903 117.655C146.426 117.657 145.959 117.799 145.563 118.066C145.166 118.332 144.858 118.709 144.676 119.151C144.494 119.592 144.446 120.078 144.54 120.546C144.633 121.014 144.863 121.445 145.201 121.782C145.539 122.12 145.969 122.35 146.437 122.443C146.905 122.537 147.391 122.49 147.832 122.308C148.274 122.125 148.651 121.817 148.918 121.42C149.184 121.024 149.326 120.557 149.328 120.08C149.329 119.762 149.267 119.448 149.147 119.154C149.026 118.861 148.849 118.594 148.625 118.368C148.401 118.143 148.135 117.964 147.842 117.842C147.549 117.72 147.235 117.656 146.918 117.655H146.903ZM146.903 122.079C146.507 122.078 146.119 121.959 145.79 121.737C145.461 121.515 145.205 121.201 145.054 120.834C144.904 120.467 144.865 120.063 144.944 119.674C145.023 119.286 145.215 118.929 145.497 118.649C145.778 118.37 146.137 118.18 146.526 118.104C146.915 118.028 147.319 118.069 147.685 118.222C148.051 118.375 148.363 118.633 148.583 118.964C148.802 119.295 148.918 119.683 148.917 120.08C148.917 120.61 148.706 121.119 148.331 121.494C147.956 121.868 147.448 122.079 146.918 122.079H146.903ZM148.669 98.2517C148.187 98.2503 147.715 98.392 147.314 98.659C146.913 98.926 146.6 99.3061 146.416 99.7511C146.231 100.196 146.183 100.686 146.277 101.159C146.371 101.631 146.603 102.065 146.945 102.405C147.286 102.745 147.72 102.977 148.193 103.069C148.666 103.162 149.156 103.112 149.6 102.926C150.045 102.74 150.424 102.427 150.69 102.025C150.956 101.623 151.096 101.151 151.093 100.669C151.091 100.03 150.837 99.417 150.386 98.9643C149.934 98.5115 149.322 98.2554 148.683 98.2517H148.669ZM148.669 102.697C148.27 102.699 147.88 102.584 147.548 102.365C147.215 102.146 146.955 101.834 146.8 101.467C146.645 101.1 146.602 100.696 146.677 100.304C146.752 99.9134 146.941 99.5533 147.221 99.2698C147.5 98.9862 147.858 98.7919 148.248 98.7115C148.638 98.631 149.043 98.6681 149.412 98.8179C149.781 98.9676 150.097 99.2235 150.321 99.553C150.544 99.8825 150.665 100.271 150.668 100.669C150.672 101.201 150.465 101.712 150.093 102.092C149.721 102.472 149.214 102.689 148.683 102.697H148.669ZM130.052 88.0713C129.629 88.0718 129.214 88.1817 128.847 88.3903C128.847 88.5392 128.903 88.681 128.932 88.8299C129.192 88.6575 129.489 88.5483 129.8 88.5111C130.11 88.4738 130.424 88.5094 130.718 88.6152C131.012 88.7209 131.277 88.8938 131.492 89.1201C131.708 89.3464 131.867 89.6199 131.958 89.9187C132.049 90.2175 132.069 90.5335 132.016 90.8413C131.964 91.1492 131.84 91.4406 131.655 91.6921C131.47 91.9437 131.228 92.1486 130.95 92.2905C130.672 92.4323 130.364 92.5072 130.052 92.5093H130.009C130.059 92.644 130.109 92.7787 130.144 92.9134C130.765 92.8695 131.344 92.5889 131.764 92.1295C132.183 91.6701 132.41 91.067 132.397 90.4451C132.384 89.8232 132.133 89.23 131.695 88.7882C131.257 88.3463 130.667 88.0897 130.045 88.0713H130.052ZM161.522 133.443C161.04 133.443 160.57 133.586 160.17 133.854C159.77 134.121 159.458 134.501 159.274 134.946C159.091 135.391 159.043 135.88 159.137 136.352C159.232 136.824 159.464 137.257 159.805 137.597C160.146 137.937 160.579 138.168 161.052 138.261C161.524 138.354 162.013 138.305 162.457 138.12C162.901 137.934 163.281 137.622 163.547 137.221C163.813 136.82 163.955 136.349 163.953 135.868C163.957 135.547 163.897 135.228 163.776 134.93C163.656 134.632 163.477 134.361 163.251 134.133C163.025 133.904 162.755 133.723 162.458 133.6C162.161 133.477 161.843 133.414 161.522 133.415V133.443ZM161.522 137.895C161.122 137.897 160.731 137.78 160.398 137.559C160.065 137.338 159.805 137.023 159.651 136.655C159.496 136.286 159.455 135.88 159.532 135.488C159.608 135.096 159.799 134.735 160.081 134.451C160.362 134.168 160.722 133.974 161.113 133.895C161.505 133.815 161.911 133.854 162.281 134.006C162.651 134.157 162.967 134.415 163.191 134.747C163.414 135.078 163.534 135.468 163.535 135.868C163.522 136.394 163.305 136.894 162.929 137.262C162.553 137.63 162.048 137.837 161.522 137.839V137.895Z" fill="white"/>
<path opacity="0.1" d="M176.09 116.634L161.203 146.126C161.203 146.126 139.715 120.498 129.662 91.538C129.413 90.8178 129.205 90.084 129.038 89.3403L176.09 116.634Z" fill="black"/>
<path d="M174.247 104.781C170.702 110.616 161.422 126.758 156.786 137.981C156.786 138.044 156.999 138.186 157.041 138.122C162.337 129.332 171.553 111.105 174.616 104.987C174.673 104.873 174.318 104.675 174.247 104.781Z" fill="#263238"/>
<path d="M49.7787 201.353L169.093 201.069L162.5 160.05C162.5 160.05 171.929 148.593 170.149 136.173C168.193 122.561 143.649 88.0714 141.586 86.1218C133.277 78.3235 124.487 76.9056 116.064 79.7414C77.009 104.264 49.7787 201.353 49.7787 201.353Z" fill="#9D634F"/>
<path d="M166.591 185.43C166.373 185.69 166.094 185.891 165.778 186.015C165.462 186.138 165.12 186.18 164.784 186.136C164.448 186.092 164.128 185.964 163.855 185.763C163.581 185.563 163.363 185.297 163.22 184.989C163.077 184.682 163.013 184.344 163.036 184.005C163.059 183.667 163.166 183.34 163.349 183.054C163.532 182.769 163.784 182.534 164.082 182.372C164.379 182.209 164.713 182.125 165.052 182.126C165.426 182.123 165.794 182.229 166.109 182.431L166.031 181.921C165.725 181.777 165.39 181.704 165.052 181.708C164.407 181.708 163.789 181.964 163.333 182.42C162.877 182.876 162.621 183.495 162.621 184.14C162.621 184.784 162.877 185.403 163.333 185.859C163.789 186.315 164.407 186.571 165.052 186.571C165.649 186.571 166.224 186.352 166.669 185.954L166.591 185.43ZM142.487 172.896C142.005 172.894 141.535 173.036 141.134 173.302C140.733 173.568 140.42 173.948 140.235 174.392C140.05 174.836 140.001 175.325 140.094 175.797C140.187 176.27 140.418 176.704 140.758 177.044C141.097 177.385 141.531 177.617 142.003 177.712C142.475 177.806 142.964 177.758 143.409 177.575C143.853 177.391 144.233 177.079 144.501 176.679C144.768 176.279 144.911 175.809 144.911 175.327C144.909 174.684 144.654 174.068 144.2 173.613C143.745 173.157 143.13 172.9 142.487 172.896ZM142.487 177.341C142.088 177.342 141.698 177.225 141.366 177.005C141.034 176.785 140.775 176.471 140.622 176.103C140.468 175.735 140.427 175.33 140.504 174.939C140.581 174.548 140.772 174.189 141.053 173.906C141.335 173.624 141.693 173.432 142.084 173.353C142.475 173.275 142.88 173.314 143.248 173.467C143.617 173.619 143.932 173.877 144.153 174.208C144.375 174.539 144.493 174.929 144.493 175.327C144.493 175.86 144.282 176.371 143.906 176.749C143.53 177.126 143.019 177.339 142.487 177.341ZM161.508 133.387C161.027 133.388 160.557 133.532 160.158 133.8C159.759 134.069 159.448 134.449 159.265 134.894C159.083 135.339 159.036 135.828 159.131 136.3C159.226 136.771 159.459 137.204 159.8 137.543C160.141 137.882 160.575 138.112 161.047 138.205C161.519 138.297 162.008 138.247 162.452 138.062C162.896 137.877 163.274 137.564 163.54 137.163C163.806 136.763 163.948 136.292 163.946 135.811C163.939 135.172 163.679 134.561 163.224 134.113C162.768 133.664 162.154 133.413 161.515 133.415L161.508 133.387ZM161.508 137.832C161.11 137.83 160.722 137.711 160.392 137.489C160.062 137.268 159.805 136.953 159.653 136.586C159.502 136.218 159.462 135.814 159.54 135.424C159.618 135.034 159.81 134.676 160.091 134.395C160.372 134.113 160.73 133.922 161.12 133.844C161.51 133.766 161.914 133.805 162.282 133.957C162.649 134.108 162.964 134.365 163.186 134.695C163.407 135.025 163.527 135.414 163.528 135.811C163.53 136.077 163.479 136.34 163.379 136.586C163.278 136.832 163.13 137.056 162.943 137.244C162.756 137.433 162.534 137.582 162.288 137.684C162.043 137.786 161.78 137.839 161.515 137.839L161.508 137.832ZM74.0529 194.844C73.723 194.827 73.3929 194.876 73.0828 194.99C72.7727 195.104 72.4891 195.28 72.2493 195.507C72.0094 195.735 71.8184 196.008 71.6879 196.312C71.5573 196.615 71.49 196.942 71.49 197.273C71.49 197.603 71.5573 197.93 71.6879 198.233C71.8184 198.537 72.0094 198.811 72.2493 199.038C72.4891 199.265 72.7727 199.441 73.0828 199.555C73.3929 199.669 73.723 199.719 74.0529 199.701C74.6742 199.667 75.259 199.397 75.6869 198.945C76.1148 198.493 76.3533 197.895 76.3533 197.273C76.3533 196.65 76.1148 196.052 75.6869 195.6C75.259 195.149 74.6742 194.878 74.0529 194.844ZM74.0529 199.282C73.6555 199.284 73.2666 199.167 72.9356 198.947C72.6046 198.727 72.3463 198.414 72.1936 198.047C72.0409 197.68 72.0006 197.276 72.0777 196.886C72.1549 196.497 72.3462 196.139 72.6272 195.857C72.9082 195.576 73.2663 195.385 73.6562 195.308C74.046 195.231 74.45 195.271 74.8169 195.424C75.1838 195.577 75.497 195.835 75.717 196.166C75.9369 196.497 76.0535 196.886 76.0521 197.283C76.0502 197.813 75.839 198.32 75.4645 198.695C75.09 199.069 74.5826 199.281 74.0529 199.282ZM98.7807 186.862C98.2992 186.859 97.8276 186.999 97.4259 187.265C97.0241 187.53 96.7103 187.909 96.524 188.353C96.3378 188.797 96.2876 189.287 96.3798 189.759C96.4721 190.232 96.7025 190.666 97.042 191.008C97.3815 191.349 97.8148 191.582 98.2869 191.677C98.7589 191.772 99.2486 191.725 99.6937 191.541C100.139 191.358 100.52 191.046 100.787 190.646C101.055 190.246 101.198 189.775 101.198 189.293C101.198 188.651 100.944 188.035 100.491 187.579C100.038 187.123 99.4231 186.866 98.7807 186.862ZM98.7807 191.293C98.3813 191.296 97.9901 191.179 97.6568 190.959C97.3235 190.739 97.0633 190.425 96.9091 190.056C96.755 189.688 96.7139 189.282 96.7912 188.89C96.8684 188.498 97.0604 188.138 97.3429 187.856C97.6253 187.573 97.9853 187.381 98.3772 187.304C98.7691 187.227 99.1751 187.268 99.5436 187.422C99.912 187.576 100.226 187.836 100.446 188.17C100.667 188.503 100.783 188.894 100.78 189.293C100.778 189.823 100.567 190.331 100.192 190.705C99.8177 191.08 99.3103 191.291 98.7807 191.293ZM80.1002 125.432C79.9845 125.425 79.8684 125.425 79.7528 125.432C79.6606 125.595 79.5826 125.751 79.4976 125.914C79.693 125.855 79.8959 125.824 80.1002 125.822C80.4708 125.821 80.8344 125.923 81.1507 126.117C81.467 126.31 81.7235 126.587 81.8919 126.917C82.0603 127.247 82.1339 127.618 82.1045 127.987C82.0752 128.357 81.9441 128.711 81.7258 129.01C81.5074 129.31 81.2104 129.543 80.8676 129.684C80.5248 129.825 80.1496 129.868 79.7837 129.809C79.4179 129.75 79.0756 129.59 78.7948 129.348C78.514 129.106 78.3057 128.791 78.1931 128.438L77.945 128.935C78.1441 129.317 78.4416 129.639 78.8068 129.868C79.1719 130.097 79.5915 130.225 80.0224 130.238C80.4532 130.251 80.8797 130.149 81.258 129.942C81.6362 129.735 81.9525 129.431 82.1743 129.062C82.3961 128.692 82.5153 128.27 82.5197 127.839C82.5241 127.408 82.4135 126.984 82.1993 126.609C81.9851 126.235 81.6751 125.925 81.3011 125.711C80.9272 125.496 80.5028 125.386 80.0718 125.39L80.1002 125.432ZM86.9272 144.021C86.4471 144.019 85.9774 144.16 85.5776 144.426C85.1777 144.692 84.8659 145.071 84.6815 145.514C84.4971 145.957 84.4485 146.446 84.5418 146.917C84.6352 147.388 84.8662 147.82 85.2057 148.16C85.5452 148.499 85.9779 148.73 86.4489 148.824C86.9199 148.917 87.4079 148.868 87.8513 148.684C88.2946 148.5 88.6732 148.188 88.939 147.788C89.2049 147.388 89.3461 146.918 89.3447 146.438C89.3428 145.796 89.0866 145.182 88.6321 144.728C88.1776 144.275 87.5619 144.021 86.9201 144.021H86.9272ZM86.9272 148.452C86.5307 148.452 86.1431 148.334 85.8133 148.114C85.4836 147.894 85.2264 147.581 85.0743 147.215C84.9223 146.848 84.8821 146.445 84.959 146.056C85.0358 145.667 85.2262 145.31 85.5061 145.029C85.786 144.748 86.1428 144.557 86.5315 144.478C86.9202 144.4 87.3234 144.439 87.6901 144.59C88.0568 144.74 88.3707 144.996 88.592 145.325C88.8133 145.654 88.9321 146.042 88.9335 146.438C88.9354 146.704 88.8847 146.968 88.7845 147.214C88.6842 147.46 88.5363 147.685 88.3493 147.874C88.1622 148.063 87.9397 148.213 87.6944 148.316C87.4492 148.419 87.1861 148.472 86.9201 148.473L86.9272 148.452ZM106.905 93.516C106.284 93.5495 105.699 93.82 105.271 94.2717C104.843 94.7234 104.605 95.3219 104.605 95.9441C104.605 96.5663 104.843 97.1648 105.271 97.6165C105.699 98.0681 106.284 98.3386 106.905 98.3722C107.235 98.39 107.565 98.3404 107.875 98.2265C108.185 98.1125 108.469 97.9365 108.709 97.7093C108.949 97.4821 109.14 97.2084 109.27 96.9049C109.401 96.6014 109.468 96.2745 109.468 95.9441C109.468 95.6137 109.401 95.2868 109.27 94.9833C109.14 94.6798 108.949 94.4061 108.709 94.1788C108.469 93.9516 108.185 93.7756 107.875 93.6617C107.565 93.5477 107.235 93.4981 106.905 93.516ZM106.905 97.9539C106.508 97.9511 106.12 97.8307 105.79 97.6077C105.461 97.3848 105.205 97.0694 105.055 96.7012C104.905 96.3331 104.867 95.9287 104.946 95.5391C105.026 95.1495 105.218 94.7921 105.501 94.5119C105.783 94.2318 106.142 94.0414 106.532 93.9649C106.922 93.8883 107.326 93.929 107.693 94.0818C108.06 94.2346 108.374 94.4927 108.594 94.8234C108.815 95.1542 108.933 95.5429 108.933 95.9405C108.934 96.207 108.882 96.471 108.779 96.7171C108.677 96.9632 108.527 97.1865 108.338 97.3739C108.148 97.5613 107.923 97.7092 107.676 97.8088C107.429 97.9083 107.164 97.9577 106.898 97.9539H106.905ZM109.337 135.634C108.856 135.635 108.386 135.779 107.987 136.048C107.588 136.316 107.277 136.697 107.095 137.142C106.912 137.586 106.865 138.076 106.96 138.547C107.056 139.018 107.288 139.451 107.629 139.79C107.971 140.129 108.404 140.359 108.876 140.452C109.348 140.544 109.837 140.495 110.281 140.309C110.725 140.124 111.104 139.811 111.37 139.411C111.636 139.01 111.777 138.539 111.776 138.059C111.776 137.738 111.712 137.421 111.589 137.126C111.466 136.83 111.285 136.562 111.058 136.337C110.83 136.111 110.561 135.933 110.264 135.812C109.967 135.692 109.65 135.631 109.33 135.634H109.337ZM109.337 140.079C108.939 140.078 108.551 139.959 108.221 139.737C107.891 139.515 107.634 139.2 107.482 138.833C107.331 138.465 107.292 138.061 107.37 137.671C107.447 137.281 107.639 136.923 107.92 136.642C108.201 136.361 108.559 136.169 108.949 136.091C109.339 136.013 109.743 136.053 110.111 136.204C110.479 136.356 110.793 136.613 111.015 136.943C111.237 137.273 111.356 137.661 111.357 138.059C111.358 138.325 111.306 138.588 111.205 138.835C111.103 139.081 110.954 139.304 110.765 139.492C110.576 139.68 110.353 139.828 110.106 139.929C109.86 140.03 109.596 140.081 109.33 140.079H109.337ZM130.052 88.0713C129.431 88.1049 128.846 88.3754 128.418 88.827C127.99 89.2787 127.752 89.8772 127.752 90.4994C127.752 91.1216 127.99 91.7201 128.418 92.1718C128.846 92.6235 129.431 92.894 130.052 92.9275C130.673 92.894 131.258 92.6235 131.686 92.1718C132.114 91.7201 132.352 91.1216 132.352 90.4994C132.352 89.8772 132.114 89.2787 131.686 88.827C131.258 88.3754 130.673 88.1049 130.052 88.0713ZM130.052 92.5093C129.653 92.5107 129.262 92.3934 128.93 92.1724C128.598 91.9514 128.338 91.6366 128.185 91.268C128.032 90.8994 127.992 90.4936 128.07 90.1022C128.148 89.7108 128.341 89.3514 128.624 89.0697C128.906 88.788 129.267 88.5966 129.658 88.52C130.05 88.4433 130.456 88.4848 130.824 88.6392C131.192 88.7935 131.506 89.0538 131.725 89.3869C131.945 89.72 132.061 90.111 132.058 90.5101C132.057 90.7735 132.004 91.0342 131.903 91.2773C131.801 91.5204 131.653 91.741 131.466 91.9267C131.279 92.1123 131.057 92.2593 130.813 92.3593C130.569 92.4592 130.308 92.5102 130.045 92.5093H130.052ZM148.69 98.2588C148.208 98.2574 147.736 98.3993 147.335 98.6666C146.934 98.9339 146.621 99.3145 146.436 99.7599C146.252 100.205 146.204 100.696 146.299 101.168C146.393 101.641 146.627 102.075 146.969 102.415C147.31 102.755 147.746 102.985 148.219 103.077C148.692 103.169 149.182 103.119 149.627 102.931C150.071 102.744 150.45 102.429 150.715 102.027C150.979 101.624 151.119 101.151 151.114 100.669C151.111 100.027 150.853 99.4132 150.397 98.9614C149.941 98.5095 149.325 98.2569 148.683 98.2588H148.69ZM148.69 102.697C148.292 102.699 147.902 102.584 147.569 102.365C147.236 102.146 146.976 101.834 146.821 101.467C146.666 101.1 146.623 100.696 146.698 100.304C146.773 99.9134 146.963 99.5533 147.242 99.2698C147.522 98.9862 147.879 98.7919 148.269 98.7115C148.659 98.6311 149.064 98.6681 149.433 98.8179C149.802 98.9676 150.118 99.2235 150.342 99.553C150.565 99.8825 150.686 100.271 150.689 100.669C150.691 100.934 150.641 101.197 150.541 101.442C150.441 101.688 150.293 101.911 150.107 102.099C149.921 102.288 149.699 102.438 149.454 102.54C149.21 102.643 148.948 102.696 148.683 102.697H148.69ZM140.495 192.427C140.013 192.426 139.543 192.567 139.142 192.833C138.741 193.1 138.428 193.479 138.243 193.923C138.058 194.367 138.009 194.857 138.102 195.329C138.195 195.801 138.426 196.235 138.766 196.576C139.105 196.916 139.539 197.149 140.011 197.243C140.482 197.337 140.972 197.29 141.416 197.106C141.861 196.922 142.241 196.61 142.509 196.21C142.776 195.81 142.919 195.34 142.919 194.859C142.919 194.215 142.664 193.598 142.209 193.142C141.755 192.686 141.138 192.429 140.495 192.427ZM140.495 196.872C140.096 196.875 139.705 196.759 139.372 196.54C139.039 196.32 138.779 196.007 138.624 195.639C138.47 195.271 138.428 194.866 138.504 194.475C138.58 194.083 138.771 193.723 139.052 193.44C139.333 193.157 139.691 192.964 140.082 192.885C140.473 192.806 140.879 192.845 141.248 192.997C141.616 193.149 141.932 193.407 142.153 193.739C142.375 194.07 142.494 194.46 142.494 194.859C142.492 195.388 142.281 195.896 141.906 196.27C141.532 196.645 141.024 196.856 140.495 196.858V196.872ZM118.298 176.604C117.818 176.602 117.348 176.743 116.948 177.009C116.548 177.275 116.236 177.654 116.052 178.097C115.868 178.54 115.819 179.028 115.912 179.499C116.006 179.97 116.237 180.403 116.576 180.742C116.916 181.082 117.348 181.313 117.819 181.406C118.29 181.5 118.778 181.451 119.222 181.267C119.665 181.082 120.044 180.77 120.31 180.371C120.575 179.971 120.717 179.501 120.715 179.021C120.716 178.703 120.654 178.387 120.533 178.093C120.412 177.798 120.235 177.53 120.01 177.304C119.786 177.079 119.519 176.899 119.225 176.777C118.931 176.654 118.616 176.59 118.298 176.589V176.604ZM118.298 181.027C117.901 181.027 117.513 180.91 117.183 180.689C116.853 180.469 116.596 180.155 116.444 179.789C116.292 179.422 116.253 179.019 116.33 178.63C116.407 178.24 116.598 177.883 116.879 177.602C117.16 177.322 117.517 177.131 117.906 177.053C118.296 176.976 118.699 177.016 119.066 177.167C119.432 177.319 119.745 177.576 119.966 177.906C120.186 178.236 120.304 178.624 120.304 179.021C120.297 179.549 120.082 180.054 119.707 180.426C119.332 180.799 118.826 181.009 118.298 181.013V181.027ZM144.528 147.395C144.046 147.392 143.574 147.533 143.172 147.799C142.77 148.065 142.456 148.445 142.27 148.89C142.085 149.335 142.035 149.825 142.129 150.298C142.222 150.771 142.454 151.205 142.795 151.546C143.136 151.887 143.57 152.119 144.043 152.212C144.516 152.306 145.007 152.257 145.451 152.071C145.896 151.885 146.276 151.571 146.542 151.169C146.808 150.767 146.949 150.295 146.946 149.813C146.947 149.492 146.884 149.174 146.761 148.878C146.639 148.581 146.458 148.312 146.231 148.086C146.003 147.86 145.733 147.681 145.436 147.56C145.139 147.439 144.821 147.378 144.5 147.381L144.528 147.395ZM144.528 151.833C144.13 151.836 143.74 151.721 143.407 151.501C143.074 151.282 142.814 150.969 142.659 150.602C142.504 150.235 142.462 149.83 142.537 149.438C142.613 149.047 142.803 148.687 143.083 148.404C143.363 148.12 143.721 147.927 144.112 147.847C144.502 147.767 144.908 147.805 145.277 147.956C145.645 148.107 145.961 148.364 146.184 148.695C146.407 149.025 146.526 149.414 146.528 149.813C146.527 150.078 146.474 150.34 146.371 150.584C146.269 150.829 146.119 151.05 145.93 151.237C145.742 151.423 145.519 151.571 145.273 151.671C145.028 151.77 144.765 151.821 144.5 151.819L144.528 151.833ZM146.946 117.662C146.466 117.662 145.998 117.805 145.599 118.071C145.2 118.337 144.889 118.716 144.706 119.159C144.522 119.602 144.474 120.09 144.568 120.56C144.662 121.03 144.892 121.462 145.231 121.801C145.571 122.14 146.003 122.371 146.473 122.465C146.943 122.559 147.431 122.51 147.874 122.327C148.317 122.143 148.695 121.833 148.962 121.434C149.228 121.035 149.371 120.566 149.371 120.087C149.372 119.765 149.31 119.446 149.187 119.148C149.065 118.85 148.884 118.58 148.655 118.353C148.427 118.126 148.156 117.947 147.857 117.826C147.559 117.705 147.24 117.644 146.918 117.648L146.946 117.662ZM146.946 122.093C146.549 122.092 146.162 121.973 145.833 121.752C145.504 121.53 145.248 121.217 145.097 120.85C144.947 120.483 144.908 120.08 144.986 119.691C145.064 119.303 145.256 118.946 145.537 118.666C145.818 118.386 146.175 118.196 146.564 118.119C146.953 118.042 147.356 118.082 147.722 118.234C148.089 118.386 148.402 118.643 148.622 118.973C148.842 119.303 148.959 119.69 148.959 120.087C148.957 120.352 148.903 120.615 148.799 120.859C148.695 121.103 148.544 121.324 148.354 121.509C148.164 121.694 147.94 121.84 147.693 121.938C147.446 122.036 147.183 122.084 146.918 122.079L146.946 122.093ZM163.755 157.164C163.2 157.169 162.664 157.364 162.235 157.716C161.807 158.068 161.512 158.556 161.4 159.099C161.288 159.643 161.366 160.208 161.62 160.701C161.874 161.194 162.29 161.584 162.798 161.808L162.713 161.29C162.34 161.064 162.051 160.721 161.891 160.315C161.731 159.909 161.708 159.461 161.826 159.041C161.944 158.621 162.197 158.251 162.545 157.987C162.893 157.724 163.318 157.582 163.755 157.583C163.92 157.578 164.085 157.6 164.244 157.647C164.315 157.526 164.4 157.413 164.478 157.271C164.244 157.199 164 157.163 163.755 157.164ZM132.065 131.196C131.584 131.195 131.114 131.336 130.713 131.602C130.313 131.868 130 132.247 129.814 132.691C129.629 133.134 129.579 133.623 129.672 134.095C129.764 134.567 129.995 135.001 130.334 135.342C130.673 135.683 131.105 135.916 131.577 136.011C132.048 136.106 132.537 136.06 132.982 135.877C133.427 135.694 133.808 135.384 134.076 134.985C134.344 134.585 134.488 134.116 134.49 133.635C134.49 132.99 134.235 132.372 133.781 131.915C133.326 131.458 132.71 131.2 132.065 131.196ZM132.065 135.634C131.666 135.637 131.275 135.521 130.941 135.301C130.608 135.08 130.348 134.766 130.194 134.398C130.04 134.029 129.999 133.623 130.076 133.231C130.153 132.839 130.345 132.479 130.628 132.197C130.91 131.915 131.27 131.722 131.662 131.645C132.054 131.568 132.46 131.609 132.828 131.763C133.197 131.917 133.511 132.178 133.731 132.511C133.951 132.844 134.067 133.235 134.065 133.635C134.063 134.164 133.851 134.672 133.477 135.046C133.102 135.421 132.595 135.632 132.065 135.634ZM69.7355 157.164C69.2556 157.164 68.7866 157.307 68.3877 157.574C67.9889 157.84 67.6781 158.219 67.4948 158.663C67.3115 159.106 67.2639 159.594 67.358 160.065C67.4522 160.535 67.6838 160.967 68.0236 161.306C68.3634 161.645 68.796 161.875 69.2668 161.968C69.7376 162.061 70.2253 162.012 70.6682 161.827C71.1112 161.642 71.4893 161.33 71.7549 160.931C72.0204 160.531 72.1615 160.062 72.1601 159.582C72.1582 158.94 71.9019 158.325 71.4474 157.872C70.9929 157.419 70.3773 157.164 69.7355 157.164ZM69.7355 161.588C69.3384 161.59 68.9498 161.473 68.6189 161.254C68.2881 161.034 68.0298 160.721 67.8769 160.355C67.7239 159.988 67.6832 159.585 67.7598 159.195C67.8364 158.805 68.0269 158.447 68.3072 158.166C68.5875 157.884 68.945 157.693 69.3344 157.615C69.7237 157.537 70.1275 157.576 70.4945 157.728C70.8615 157.879 71.1753 158.136 71.3961 158.467C71.6168 158.797 71.7347 159.185 71.7347 159.582C71.7347 160.113 71.5243 160.622 71.1496 160.998C70.7748 161.374 70.2664 161.586 69.7355 161.588ZM118.298 198.878C117.673 198.879 117.073 199.121 116.622 199.552C116.17 199.984 115.902 200.573 115.873 201.197H116.299C116.327 200.685 116.55 200.204 116.922 199.851C117.293 199.498 117.785 199.299 118.298 199.297C118.81 199.294 119.303 199.49 119.674 199.843C120.046 200.195 120.266 200.678 120.29 201.189H120.715C120.686 200.568 120.419 199.981 119.969 199.55C119.519 199.12 118.92 198.879 118.298 198.878ZM99.5605 160.936C99.0807 160.936 98.6116 161.078 98.2128 161.345C97.8139 161.612 97.5031 161.991 97.3198 162.434C97.1365 162.878 97.0889 163.366 97.1831 163.836C97.2772 164.307 97.5088 164.739 97.8486 165.077C98.1884 165.416 98.6211 165.647 99.0919 165.739C99.5626 165.832 100.05 165.783 100.493 165.599C100.936 165.414 101.314 165.102 101.58 164.702C101.845 164.303 101.986 163.833 101.985 163.353C101.983 162.712 101.727 162.097 101.272 161.644C100.818 161.19 100.202 160.936 99.5605 160.936ZM99.5605 165.367C99.164 165.367 98.7764 165.249 98.4466 165.029C98.1168 164.809 97.8597 164.496 97.7076 164.13C97.5556 163.764 97.5154 163.361 97.5923 162.972C97.6691 162.583 97.8595 162.225 98.1394 161.944C98.4192 161.664 98.7761 161.472 99.1648 161.394C99.5535 161.315 99.9567 161.354 100.323 161.505C100.69 161.656 101.004 161.912 101.225 162.241C101.447 162.57 101.565 162.957 101.567 163.353C101.568 163.618 101.517 163.879 101.416 164.123C101.316 164.368 101.168 164.59 100.982 164.777C100.795 164.964 100.574 165.112 100.33 165.213C100.086 165.315 99.8246 165.367 99.5605 165.367ZM100.759 116.45C100.28 116.454 99.8134 116.6 99.4174 116.869C99.0215 117.138 98.7141 117.518 98.5338 117.961C98.3536 118.405 98.3086 118.892 98.4045 119.361C98.5005 119.829 98.733 120.26 99.073 120.596C99.4129 120.933 99.8449 121.162 100.315 121.254C100.784 121.346 101.271 121.297 101.713 121.113C102.154 120.928 102.532 120.618 102.797 120.219C103.063 119.821 103.204 119.353 103.204 118.875C103.208 118.552 103.148 118.232 103.026 117.933C102.905 117.634 102.725 117.363 102.497 117.134C102.269 116.906 101.998 116.725 101.7 116.603C101.401 116.48 101.081 116.419 100.759 116.422V116.45ZM100.759 120.874C100.228 120.874 99.7199 120.663 99.345 120.288C98.97 119.913 98.7594 119.405 98.7594 118.875C98.7566 118.475 98.8727 118.084 99.0928 117.751C99.313 117.418 99.6273 117.157 99.9957 117.003C100.364 116.849 100.77 116.808 101.162 116.885C101.554 116.962 101.914 117.154 102.196 117.437C102.479 117.719 102.671 118.079 102.748 118.471C102.825 118.863 102.784 119.269 102.63 119.638C102.476 120.006 102.216 120.32 101.882 120.54C101.549 120.761 101.158 120.877 100.759 120.874ZM57.7048 178.184C57.5502 178.184 57.3959 178.198 57.244 178.227C57.1944 178.39 57.1377 178.546 57.0809 178.695C57.2825 178.63 57.493 178.596 57.7048 178.596C58.2388 178.596 58.7509 178.808 59.1285 179.185C59.5061 179.563 59.7182 180.075 59.7182 180.609C59.7182 181.143 59.5061 181.655 59.1285 182.033C58.7509 182.41 58.2388 182.622 57.7048 182.622C57.3715 182.623 57.0433 182.54 56.7508 182.38C56.4583 182.22 56.2109 181.989 56.0317 181.708C55.9821 181.871 55.9254 182.027 55.8687 182.183C56.0941 182.451 56.3751 182.666 56.6922 182.814C57.0093 182.962 57.3548 183.04 57.7048 183.041C58.0347 183.059 58.3648 183.009 58.6749 182.895C58.985 182.781 59.2686 182.605 59.5084 182.378C59.7483 182.151 59.9393 181.877 60.0698 181.573C60.2004 181.27 60.2677 180.943 60.2677 180.613C60.2677 180.282 60.2004 179.955 60.0698 179.652C59.9393 179.348 59.7483 179.075 59.5084 178.847C59.2686 178.62 58.985 178.444 58.6749 178.33C58.3648 178.216 58.0347 178.167 57.7048 178.184ZM84.1057 174.165C83.6244 174.166 83.1544 174.31 82.7552 174.579C82.3559 174.848 82.0454 175.229 81.8628 175.674C81.6803 176.119 81.634 176.609 81.7298 177.08C81.8256 177.552 82.0591 177.985 82.4009 178.323C82.7427 178.662 83.1773 178.892 83.6497 178.984C84.1221 179.075 84.6111 179.025 85.0548 178.838C85.4985 178.652 85.8768 178.338 86.142 177.936C86.4072 177.535 86.5472 177.063 86.5444 176.582C86.5472 176.261 86.4861 175.942 86.3647 175.645C86.2432 175.347 86.0638 175.077 85.8368 174.849C85.6099 174.621 85.34 174.441 85.0428 174.319C84.7456 174.197 84.427 174.135 84.1057 174.136V174.165ZM84.1057 178.596C83.7077 178.594 83.3192 178.475 82.989 178.253C82.6589 178.031 82.4019 177.716 82.2506 177.348C82.0993 176.98 82.0604 176.575 82.1389 176.185C82.2174 175.795 82.4097 175.437 82.6916 175.156C82.9734 174.875 83.3322 174.684 83.7226 174.607C84.1129 174.53 84.5174 174.57 84.8849 174.723C85.2523 174.875 85.5664 175.133 85.7873 175.464C86.0082 175.795 86.1261 176.184 86.1261 176.582C86.1187 177.113 85.9023 177.618 85.524 177.99C85.1457 178.362 84.636 178.569 84.1057 178.567V178.596ZM122.736 155.201C122.256 155.199 121.786 155.34 121.387 155.606C120.987 155.871 120.675 156.25 120.491 156.692C120.306 157.135 120.257 157.623 120.35 158.094C120.443 158.565 120.673 158.997 121.012 159.337C121.35 159.677 121.782 159.909 122.253 160.003C122.723 160.097 123.211 160.049 123.655 159.866C124.098 159.683 124.477 159.372 124.744 158.973C125.011 158.574 125.153 158.105 125.153 157.625C125.157 157.304 125.097 156.986 124.978 156.688C124.858 156.39 124.681 156.119 124.456 155.89C124.232 155.661 123.964 155.478 123.669 155.353C123.374 155.227 123.057 155.161 122.736 155.158V155.201ZM122.736 159.624C122.34 159.624 121.954 159.507 121.625 159.288C121.296 159.068 121.04 158.756 120.889 158.39C120.737 158.025 120.698 157.623 120.775 157.235C120.852 156.847 121.042 156.491 121.322 156.212C121.602 155.932 121.958 155.742 122.346 155.664C122.733 155.587 123.135 155.627 123.501 155.778C123.866 155.93 124.178 156.186 124.398 156.515C124.618 156.843 124.735 157.23 124.735 157.625C124.72 158.147 124.504 158.642 124.131 159.007C123.758 159.372 123.258 159.578 122.736 159.582V159.624ZM116.447 79.6562C116.278 79.888 116.059 80.0794 115.806 80.2167C115.554 80.3539 115.274 80.4337 114.987 80.4502L114.427 80.8401C114.562 80.8663 114.7 80.8782 114.838 80.8756C115.304 80.8742 115.759 80.74 116.151 80.4889C116.542 80.2377 116.854 79.88 117.05 79.4577L116.447 79.6562ZM123.941 106.596C123.46 106.597 122.99 106.741 122.59 107.01C122.191 107.279 121.881 107.66 121.698 108.105C121.516 108.55 121.469 109.04 121.565 109.511C121.661 109.983 121.894 110.416 122.236 110.754C122.578 111.093 123.013 111.323 123.485 111.415C123.957 111.506 124.446 111.456 124.89 111.269C125.334 111.083 125.712 110.769 125.977 110.367C126.242 109.966 126.382 109.495 126.38 109.013C126.382 108.693 126.32 108.375 126.198 108.079C126.076 107.783 125.896 107.513 125.669 107.287C125.442 107.061 125.173 106.882 124.876 106.761C124.579 106.64 124.261 106.579 123.941 106.582V106.596ZM123.941 111.041C123.544 111.038 123.157 110.918 122.828 110.696C122.499 110.473 122.243 110.159 122.092 109.791C121.942 109.424 121.903 109.021 121.981 108.631C122.059 108.242 122.251 107.885 122.531 107.604C122.812 107.323 123.17 107.132 123.559 107.054C123.948 106.975 124.352 107.014 124.719 107.165C125.086 107.315 125.401 107.571 125.623 107.9C125.846 108.229 125.966 108.616 125.968 109.013C125.968 109.279 125.916 109.542 125.814 109.787C125.712 110.032 125.562 110.255 125.374 110.442C125.185 110.629 124.962 110.777 124.716 110.878C124.47 110.978 124.206 111.029 123.941 111.027V111.041Z" fill="white"/>
<path d="M145.89 156.115C141.007 156.546 136.163 157.343 131.399 158.497C129.038 159.1 126.72 159.809 124.409 160.574C123.253 160.95 122.098 161.283 120.935 161.624C119.723 162.011 118.468 162.249 117.199 162.333C117.176 162.333 117.155 162.341 117.139 162.357C117.123 162.373 117.114 162.395 117.114 162.418C117.114 162.44 117.123 162.462 117.139 162.478C117.155 162.494 117.176 162.503 117.199 162.503C118.397 162.563 119.598 162.542 120.793 162.439C121.948 162.301 123.092 162.086 124.217 161.794C126.614 161.198 128.988 160.503 131.378 159.887C136.205 158.646 141.033 157.405 145.939 156.512C146.173 156.477 146.116 156.087 145.89 156.115Z" fill="#263238"/>
<path d="M157.949 160.44C153.929 160.017 149.889 159.82 145.847 159.851C143.819 159.851 141.813 160.021 139.8 160.213C138.843 160.305 137.879 160.418 136.922 160.539C135.964 160.66 134.795 160.95 133.774 161.071C133.668 161.071 133.668 161.255 133.774 161.241C134.766 161.163 135.787 161.241 136.787 161.241L139.807 161.163C141.827 161.113 143.841 161.085 145.854 161.021C149.888 160.879 153.908 160.787 157.949 160.787C158.168 160.766 158.154 160.461 157.949 160.44Z" fill="#263238"/>
<path d="M101.709 90.4888C71.3234 122.341 33.537 188.882 41.0092 202.147C49.3322 216.9 92.8114 171.818 91.436 169.649C90.2663 167.806 105.757 127.46 116.752 98.1453C127.748 68.8308 109.223 82.6125 101.709 90.4888Z" fill="#EEB3AC"/>
<path d="M64.5034 128.679L108.139 136.535C108.139 136.535 119.035 105.618 121.197 88.4472C122.402 78.827 116.752 78.437 109.634 83.5485C84.7152 101.442 64.5034 128.679 64.5034 128.679Z" fill="#9D634F"/>
<path d="M80.1001 125.432C79.6203 125.432 79.1512 125.575 78.7523 125.842C78.3535 126.108 78.0427 126.487 77.8594 126.931C77.6761 127.374 77.6285 127.862 77.7226 128.333C77.8168 128.803 78.0484 129.235 78.3882 129.574C78.728 129.913 79.1607 130.143 79.6314 130.236C80.1022 130.329 80.59 130.28 81.0329 130.095C81.4758 129.91 81.8539 129.599 82.1195 129.199C82.3851 128.799 82.5261 128.33 82.5247 127.85C82.5228 127.208 82.2665 126.593 81.812 126.14C81.3575 125.687 80.7419 125.432 80.1001 125.432ZM80.1001 129.863C79.7033 129.865 79.315 129.748 78.9843 129.529C78.6536 129.31 78.3953 128.997 78.2422 128.631C78.089 128.265 78.0479 127.862 78.1239 127.473C78.1999 127.083 78.3898 126.725 78.6693 126.443C78.9489 126.162 79.3057 125.97 79.6947 125.891C80.0836 125.812 80.4871 125.85 80.8542 126.001C81.2214 126.151 81.5356 126.407 81.7572 126.737C81.9789 127.066 82.0979 127.453 82.0993 127.85C82.0993 128.382 81.8891 128.891 81.5146 129.269C81.1401 129.646 80.6316 129.86 80.1001 129.863ZM106.905 93.5161C106.284 93.5497 105.699 93.8201 105.271 94.2718C104.843 94.7235 104.605 95.322 104.605 95.9442C104.605 96.5664 104.843 97.1649 105.271 97.6166C105.699 98.0683 106.284 98.3387 106.905 98.3723C107.235 98.3901 107.565 98.3406 107.875 98.2266C108.185 98.1126 108.469 97.9367 108.709 97.7094C108.949 97.4822 109.14 97.2085 109.27 96.905C109.401 96.6015 109.468 96.2746 109.468 95.9442C109.468 95.6138 109.401 95.2869 109.27 94.9834C109.14 94.6799 108.949 94.4062 108.709 94.179C108.469 93.9517 108.185 93.7758 107.875 93.6618C107.565 93.5478 107.235 93.4983 106.905 93.5161ZM106.905 97.954C106.507 97.9512 106.12 97.8308 105.79 97.6078C105.461 97.3849 105.205 97.0695 105.055 96.7014C104.905 96.3332 104.867 95.9289 104.946 95.5392C105.026 95.1496 105.218 94.7922 105.501 94.512C105.783 94.2319 106.141 94.0415 106.532 93.965C106.922 93.8884 107.326 93.9291 107.693 94.0819C108.06 94.2347 108.374 94.4928 108.594 94.8236C108.815 95.1544 108.933 95.543 108.933 95.9406C108.934 96.2071 108.881 96.4711 108.779 96.7172C108.677 96.9633 108.527 97.1866 108.338 97.374C108.148 97.5615 107.923 97.7093 107.676 97.8089C107.429 97.9085 107.164 97.9578 106.898 97.954H106.905ZM87.8346 103.044C87.4692 103.047 87.1086 103.129 86.7783 103.285C86.4026 103.668 86.0268 104.037 85.6582 104.42C85.5001 104.744 85.42 105.101 85.4242 105.462C85.4228 105.943 85.5644 106.414 85.8311 106.815C86.0977 107.216 86.4774 107.529 86.922 107.714C87.3667 107.899 87.8562 107.948 88.3285 107.854C88.8009 107.76 89.2348 107.529 89.5753 107.188C89.9158 106.848 90.1475 106.414 90.2411 105.941C90.3347 105.469 90.286 104.98 90.1011 104.535C89.9161 104.09 89.6034 103.711 89.2024 103.444C88.8014 103.177 88.3303 103.036 87.8488 103.037L87.8346 103.044ZM87.8346 107.489C87.437 107.488 87.0487 107.369 86.7187 107.147C86.3887 106.925 86.1317 106.611 85.9802 106.243C85.8287 105.875 85.7894 105.471 85.8674 105.081C85.9453 104.691 86.1369 104.333 86.418 104.052C86.6992 103.771 87.0573 103.579 87.4472 103.502C87.8371 103.424 88.2413 103.463 88.6089 103.614C88.9765 103.766 89.291 104.023 89.5128 104.353C89.7346 104.683 89.8537 105.071 89.8551 105.469C89.856 105.735 89.8042 105.999 89.7025 106.245C89.6009 106.491 89.4515 106.714 89.2629 106.902C89.0743 107.09 88.8504 107.239 88.604 107.339C88.3576 107.44 88.0937 107.491 87.8275 107.489H87.8346ZM107.543 136.421L108.046 136.506L108.139 136.435L108.351 135.818C108.04 135.957 107.764 136.162 107.543 136.421ZM100.759 116.401C100.28 116.405 99.8133 116.551 99.4174 116.82C99.0215 117.088 98.714 117.469 98.5338 117.912C98.3535 118.355 98.3085 118.842 98.4045 119.311C98.5004 119.78 98.733 120.21 99.0729 120.547C99.4128 120.884 99.8448 121.113 100.315 121.205C100.784 121.296 101.271 121.247 101.713 121.063C102.154 120.879 102.532 120.568 102.797 120.17C103.063 119.772 103.204 119.304 103.204 118.825C103.202 118.507 103.136 118.192 103.012 117.899C102.887 117.606 102.706 117.34 102.479 117.117C102.252 116.894 101.983 116.718 101.688 116.598C101.393 116.479 101.077 116.419 100.759 116.422V116.401ZM100.759 120.824C100.228 120.824 99.7198 120.614 99.3449 120.239C98.97 119.864 98.7594 119.355 98.7594 118.825C98.7565 118.426 98.8726 118.035 99.0927 117.701C99.3129 117.368 99.6272 117.108 99.9957 116.954C100.364 116.799 100.77 116.758 101.162 116.836C101.554 116.913 101.914 117.105 102.196 117.387C102.479 117.67 102.671 118.03 102.748 118.422C102.825 118.814 102.784 119.22 102.63 119.588C102.476 119.957 102.216 120.271 101.882 120.491C101.549 120.711 101.158 120.827 100.759 120.824ZM114.554 80.7977H114.831C115.34 80.8024 115.837 80.6433 116.249 80.344C115.669 80.4411 115.101 80.6003 114.554 80.819V80.7977Z" fill="white"/>
<path d="M107.827 129.388C101.212 127.623 83.1344 123.355 71.0257 122.122C70.9548 122.122 70.891 122.384 70.9619 122.405C80.8871 124.958 100.993 128.609 107.735 129.8C107.862 129.821 107.947 129.424 107.827 129.388Z" fill="#263238"/>
<path d="M102.786 135.577C104.587 135.757 106.38 135.967 108.167 136.208L107.791 136.428C109.091 131.702 110.521 126.992 112.08 122.299C113.64 117.627 115.285 112.983 117.163 108.411C116.022 113.217 114.647 117.946 113.186 122.653C111.726 127.361 110.145 132.018 108.422 136.641L108.316 136.924L108.046 136.86C106.331 136.463 104.537 136.045 102.786 135.577Z" fill="#263238"/>
<path d="M114.278 117.826C114.667 116.852 115.167 115.927 115.767 115.068C116.36 114.199 117.022 113.379 117.745 112.615C117.641 113.138 117.464 113.644 117.22 114.118C116.997 114.593 116.734 115.048 116.433 115.479C115.84 116.368 115.113 117.159 114.278 117.826Z" fill="#263238"/>
<path d="M41.9947 203.508C50.2326 212.426 69.2605 211.739 117.326 214.511C123.983 214.893 139.304 168.678 132.214 167.905C123.296 166.927 88.4656 165.069 85.9063 165.261C64.2908 166.834 36.4012 197.454 41.9947 203.508Z" fill="#EEB3AC"/>
<path d="M122.573 167.047C122.573 167.047 142.82 167.338 153.404 170.776C167.583 175.384 177.926 185.203 182.017 189.577C190.524 198.715 204.852 226.697 197.514 232.22C190.872 237.225 177.664 207.882 177.664 207.882C177.664 207.882 196.04 235.58 186.937 240.138C177.834 244.697 164.464 209.76 164.464 209.76C164.464 209.76 182.705 238.643 172.574 241.847C164.91 244.279 151.022 213.319 151.022 213.319C151.022 213.319 166.591 238.253 158.792 241.088C150.207 244.222 135.596 216.453 135.596 216.453C114.632 220.331 103.07 213.617 95.406 207.839C93.5699 206.443 122.573 167.047 122.573 167.047Z" fill="#EEB3AC"/>
<path d="M171.95 197.9C174.226 201.069 176.551 204.281 178.536 207.641C180.521 211.002 182.393 214.447 184.059 217.978C188.135 226.655 189.333 232.723 189.22 232.362C186.505 223.684 179.578 211.519 177.593 208.152C175.608 204.784 173.793 201.332 171.815 197.971C171.766 197.886 171.893 197.822 171.95 197.9Z" fill="#263238"/>
<path d="M159.657 204.848C162.394 209.031 165.258 213.079 167.803 217.382C170.348 221.685 172.368 225.946 174.602 230.391C174.772 230.731 174.531 230.717 174.346 230.391C171.936 226.038 169.384 222.203 166.917 217.878C164.45 213.554 162.16 209.137 159.558 204.919C159.501 204.841 159.615 204.784 159.657 204.848Z" fill="#263238"/>
<path d="M148.038 208.917C152.539 215.092 155.9 222.089 159.026 229.037C159.182 229.377 158.87 229.32 158.693 228.973C155.148 222.217 152.447 216.921 147.825 209.073C147.754 208.953 147.946 208.789 148.038 208.917Z" fill="#263238"/>
<path d="M68.1191 172.91C71.0115 170.556 79.3132 164.842 88.182 165.112C88.1979 165.117 88.2117 165.126 88.2216 165.14C88.2314 165.153 88.2368 165.169 88.2368 165.186C88.2368 165.203 88.2314 165.219 88.2216 165.232C88.2117 165.246 88.1979 165.255 88.182 165.26C81.0005 166.09 71.1675 171.003 68.19 173.059C68.1261 173.087 68.0482 172.974 68.1191 172.91Z" fill="#263238"/>
<path d="M121.722 83.3568C122.119 85.4269 131.363 99.0953 140.736 99.0244C143.791 99.0244 144.38 82.3289 144.38 82.3289L144.706 81.1095L149.243 64.0241L129.506 50.2282L126.67 48.3991C126.67 48.3991 125.734 53.149 124.636 59.0899C124.579 59.3593 124.529 59.6358 124.48 59.9335C124.43 60.2313 124.338 60.5787 124.281 60.8977C124.104 61.7768 123.934 62.6842 123.778 63.5845C123.65 64.2935 123.53 64.9457 123.43 65.6688C123.331 66.3919 123.204 67.0867 123.083 67.8311C122.027 75.0126 121.566 82.4848 121.722 83.3568Z" fill="#EEB3AC"/>
<path d="M124.614 59.0901C126.162 64.0017 128.761 68.5172 132.23 72.3224C135.7 76.1276 139.957 79.1311 144.706 81.1239L149.243 64.0385L129.506 50.2425L126.67 48.4135C126.67 48.4135 125.713 53.1492 124.614 59.0901Z" fill="#263238"/>
<path d="M171.27 31.328C181.315 60.678 164.889 70.0147 158.509 72.1699C152.759 74.1337 132.937 80.0817 119.907 51.9226C106.877 23.7636 117.355 9.81172 130.265 4.62938C143.174 -0.552957 161.217 1.97086 171.27 31.328Z" fill="#EEB3AC"/>
<path d="M122.445 52.7663C128.294 52.2346 126.876 38.8711 126.876 38.8711C126.876 38.8711 150.214 29.3713 147.91 9.20205C147.91 9.20205 154.843 20.8641 168.802 23.7566C168.802 23.7566 163.181 2.30408 145.088 1.88581C145.088 1.88581 122.083 -1.16262 113.846 18.3757C105.608 37.9141 118.517 53.1137 122.445 52.7663Z" fill="#263238"/>
<path d="M147.676 7.72025C148.628 10.6933 148.938 13.8348 148.584 16.9364C148.271 20.0946 147.305 23.1533 145.748 25.9187C145.363 26.6104 144.937 27.278 144.472 27.9179L143.805 28.9033C143.557 29.2082 143.295 29.5059 143.033 29.7966C142.501 30.385 141.997 30.9876 141.445 31.5477C140.892 32.1077 140.261 32.5827 139.658 33.0861C139.36 33.3413 139.07 33.6036 138.758 33.8375L137.779 34.4898L135.83 35.78C134.454 36.489 133.044 37.1979 131.64 37.8005C132.902 36.886 134.228 36.1132 135.454 35.1987L137.241 33.7808L138.134 33.0719C138.417 32.8237 138.68 32.5402 138.949 32.2779C139.481 31.7391 140.012 31.2074 140.565 30.6898C141.118 30.1723 141.522 29.5272 141.983 28.9529L142.692 28.088L143.309 27.1452C143.74 26.5343 144.133 25.8974 144.486 25.2381C145.957 22.6127 146.966 19.7544 147.47 16.7876C147.733 15.2961 147.875 13.7859 147.896 12.2716C147.951 10.751 147.878 9.22844 147.676 7.72025Z" fill="#263238"/>
<path d="M111.35 34.8162L110.06 37.8788L120.247 44.4649L123.005 37.6094L111.35 34.8162ZM119.389 41.4235L112.378 37.4393L112.655 36.7303L120.41 39.0273L119.389 41.4235Z" fill="#9D634F"/>
<path d="M111.456 29.5554L111.414 32.8661L123.331 35.1347V27.7405L111.456 29.5554ZM121.381 32.6535L113.42 31.6042V30.8315L121.431 30.08L121.381 32.6535Z" fill="#9D634F"/>
<path d="M125.373 52.5747C125.373 52.5747 116.469 44.8118 112.782 48.2077C109.096 51.6035 117.426 64.0099 122.892 64.6338C123.588 64.7621 124.303 64.7482 124.993 64.5929C125.684 64.4377 126.336 64.1442 126.91 63.7302C127.485 63.3162 127.969 62.7903 128.335 62.1841C128.701 61.5779 128.94 60.904 129.038 60.2029L125.373 52.5747Z" fill="#EEB3AC"/>
<path d="M115.256 51.7029C115.178 51.7029 115.193 51.8376 115.256 51.8447C119.12 52.3977 121.779 55.1909 123.912 58.2251C122.544 57.1901 120.949 56.8073 119.517 58.5016C119.439 58.5938 119.56 58.7143 119.659 58.6647C120.226 58.3141 120.889 58.1489 121.555 58.1921C122.22 58.2353 122.856 58.4847 123.374 58.9057C124.237 59.6124 125.024 60.4085 125.72 61.2807C125.961 61.5572 126.486 61.2807 126.273 60.9191L126.224 60.8411C125.21 56.3677 120.176 50.9656 115.256 51.7029Z" fill="#263238"/>
<path d="M166.683 27.7125C165.976 27.79 165.266 27.8278 164.556 27.826C163.82 27.9722 163.056 27.8674 162.387 27.5282C162.194 27.385 162.056 27.181 161.994 26.9494C161.933 26.7177 161.951 26.472 162.046 26.2521C162.294 25.8403 162.647 25.5025 163.07 25.2743C163.493 25.046 163.969 24.9357 164.45 24.9548C165.425 24.8426 166.407 25.0951 167.207 25.6637C167.384 25.8021 167.516 25.9889 167.588 26.2011C167.66 26.4134 167.669 26.642 167.613 26.8592C167.557 27.0763 167.44 27.2726 167.275 27.4241C167.11 27.5756 166.904 27.6758 166.683 27.7125Z" fill="#263238"/>
<path d="M148.109 34.1991C148.751 33.9166 149.379 33.5995 149.987 33.2491C150.695 33.0014 151.305 32.5314 151.724 31.9092C151.816 31.6869 151.831 31.4407 151.768 31.2087C151.705 30.9767 151.568 30.7719 151.377 30.626C150.526 30.0518 149.533 30.2928 148.647 30.704C147.743 31.093 147.018 31.8062 146.613 32.7032C146.531 32.9122 146.513 33.1404 146.559 33.3599C146.605 33.5793 146.714 33.7806 146.873 33.9392C147.031 34.0978 147.232 34.2068 147.452 34.253C147.671 34.2991 147.899 34.2804 148.109 34.1991Z" fill="#263238"/>
<path d="M149.831 39.8778C149.732 40.1046 149.595 40.3131 149.427 40.4946C149.298 40.6442 149.138 40.7636 148.958 40.8445C148.778 40.9254 148.582 40.9657 148.385 40.9625C147.151 40.9625 146.485 39.7573 146.258 38.5238C146.258 38.4316 146.258 38.3749 146.35 38.4316C146.924 39.0129 147.591 39.6013 148.286 39.417C148.754 39.2894 149.087 38.8215 149.42 38.4174C149.504 38.9176 149.642 39.4073 149.831 39.8778Z" fill="#263238"/>
<path d="M154.539 39.7077C154.657 40.2717 154.62 40.8573 154.432 41.402C154.315 41.697 154.138 41.9645 153.912 42.1877C153.686 42.411 153.417 42.5852 153.121 42.6994C152.818 42.8093 152.493 42.8467 152.173 42.8085C151.853 42.7704 151.546 42.6577 151.277 42.4796C150.811 42.1587 150.425 41.7341 150.15 41.239C149.991 40.9438 149.851 40.6382 149.732 40.3245C149.478 39.6707 149.378 38.9671 149.441 38.2685C149.586 38.7631 149.788 39.239 150.044 39.6864C150.269 40.0849 150.522 40.4664 150.802 40.8278C151.384 41.5367 152.128 42.0685 152.78 41.7707C153.433 41.4729 153.787 40.764 153.745 39.8211C153.673 38.8628 153.512 37.9134 153.262 36.9854C153.891 37.7831 154.327 38.7145 154.539 39.7077Z" fill="#263238"/>
<path d="M168.072 33.3981C168.275 33.539 168.5 33.6445 168.739 33.71C168.926 33.772 169.125 33.7921 169.321 33.7689C169.517 33.7456 169.705 33.6795 169.873 33.5753C170.936 32.9373 170.873 31.5619 170.412 30.3922C170.412 30.3071 170.32 30.2788 170.298 30.3922C170.1 31.1791 169.837 32.0298 169.15 32.2354C168.638 32.2964 168.119 32.2026 167.661 31.966C167.849 32.4272 167.987 32.9073 168.072 33.3981Z" fill="#263238"/>
<path d="M164.733 36.2694C165.025 36.7636 165.447 37.1682 165.952 37.4391C166.237 37.5783 166.547 37.6566 166.863 37.6688C167.179 37.681 167.494 37.6269 167.789 37.51C168.088 37.3865 168.355 37.1935 168.565 36.947C168.776 36.7006 168.925 36.4075 169.001 36.0921C169.129 35.5417 169.129 34.9694 169.001 34.419C168.918 34.0934 168.814 33.7737 168.689 33.462C168.436 32.8082 168.033 32.223 167.512 31.7534C167.729 32.2065 167.895 32.682 168.008 33.1713C168.113 33.6144 168.184 34.0646 168.221 34.5183C168.292 35.4541 168.086 36.3332 167.406 36.5529C166.725 36.7727 165.988 36.4962 165.378 35.7731C164.768 35.0157 164.236 34.1986 163.79 33.3344C163.868 34.3736 164.191 35.3795 164.733 36.2694Z" fill="#263238"/>
<path d="M163.868 55.3398C164.471 55.6871 165.116 56.2188 165.867 56.0983C166.613 55.8974 167.309 55.5424 167.909 55.0562C167.921 55.0457 167.936 55.0394 167.952 55.0384C167.968 55.0374 167.983 55.0418 167.996 55.0508C168.009 55.0597 168.019 55.0728 168.024 55.088C168.029 55.1031 168.028 55.1193 168.022 55.1342C167.83 55.6014 167.516 56.0088 167.114 56.3142C166.711 56.6196 166.234 56.8118 165.733 56.8711C165.291 56.8641 164.861 56.7255 164.499 56.4729C164.136 56.2203 163.857 55.8652 163.698 55.4532C163.641 55.3681 163.755 55.283 163.868 55.3398Z" fill="#263238"/>
<path d="M167.824 45.0036C168.186 45.755 164.386 45.7125 163.755 45.6203L162.613 44.5144C163.733 44.2769 164.88 44.1887 166.023 44.2521C163.429 38.2616 159.877 32.7248 157.367 26.7059C157.353 26.6605 157.356 26.6118 157.374 26.568C157.392 26.5242 157.425 26.488 157.466 26.4655C157.508 26.443 157.556 26.4356 157.603 26.4445C157.649 26.4534 157.691 26.4781 157.722 26.5145C161.834 32.0584 164.974 38.8854 167.824 45.0036Z" fill="#263238"/>
<path d="M162.606 44.5144C163.315 45.0532 165.229 46.4073 167.066 46.3222C167.774 46.2513 169.561 45.8685 169.901 47.4139C170.206 48.8318 168.001 49.9519 167.066 50.4482L167.179 49.6542C167.62 50.0468 167.938 50.559 168.093 51.1288C168.136 51.308 168.139 51.4942 168.103 51.6748C168.067 51.8554 167.992 52.0259 167.883 52.1748C167.775 52.3236 167.635 52.4472 167.475 52.5371C167.314 52.627 167.136 52.6811 166.952 52.6955C165.655 52.6601 165.017 51.859 164.116 51.4974C164.62 51.5072 165.119 51.5908 165.598 51.7456C166.003 51.8981 166.438 51.9516 166.867 51.9015C167.151 51.7881 167.285 51.6038 167.207 51.3344C167.065 50.9668 166.836 50.6387 166.541 50.3773L166.052 49.9094C166.795 49.6499 167.498 49.2897 168.143 48.8389C168.795 48.3427 169.355 47.733 168.916 47.2367C168.576 46.8539 167.229 47.5061 165.931 47.1658C165.228 46.9673 164.572 46.6306 164.001 46.1753C163.431 45.72 162.956 45.1553 162.606 44.5144Z" fill="#263238"/>
<path d="M150.363 45.1238C152.011 44.6318 153.749 44.5227 155.446 44.8048C156.307 44.9402 157.143 45.2031 157.927 45.5846C158.714 45.9744 159.432 46.4892 160.054 47.1088C161.3 48.3645 162.142 49.9644 162.472 51.7027C162.788 53.4164 162.57 55.1858 161.848 56.7716C162.23 55.1396 162.23 53.4411 161.848 51.8091C161.479 50.2161 160.697 48.7487 159.579 47.5554C158.414 46.3865 156.938 45.5769 155.325 45.223C153.692 44.8814 152.009 44.8477 150.363 45.1238Z" fill="#263238"/>
</svg>
